<svg width="262" height="111" viewBox="0 0 262 111" fill="none" xmlns="http://www.w3.org/2000/svg">
<line y1="-0.2" x2="240.925" y2="-0.2" transform="matrix(1 0 0.00218396 0.999998 20.5398 96.4238)" stroke="black" stroke-opacity="0.2" stroke-width="0.4"/>
<line y1="-0.2" x2="240.925" y2="-0.2" transform="matrix(1 0 0.00218396 0.999998 20.5398 66.3555)" stroke="black" stroke-opacity="0.2" stroke-width="0.4"/>
<line y1="-0.2" x2="240.925" y2="-0.2" transform="matrix(1 0 0.00218396 0.999998 20.5398 36.2891)" stroke="black" stroke-opacity="0.2" stroke-width="0.4"/>
<line y1="-0.2" x2="240.925" y2="-0.2" transform="matrix(1 0 0.00262434 0.999997 19.5378 6.2207)" stroke="black" stroke-opacity="0.2" stroke-width="0.4"/>
<path d="M10.2892 98.6562V99.3125H6.95321V98.7485L8.57333 96.9814C8.75107 96.7809 8.8912 96.6077 8.99374 96.4619C9.09628 96.3161 9.16806 96.1851 9.20907 96.0688C9.25237 95.9504 9.27402 95.8353 9.27402 95.7236C9.27402 95.5664 9.24439 95.4285 9.18515 95.3101C9.12818 95.1893 9.04387 95.0947 8.93222 95.0264C8.82056 94.9557 8.68499 94.9204 8.52548 94.9204C8.34091 94.9204 8.18596 94.9603 8.06064 95.04C7.93531 95.1198 7.84075 95.2303 7.77695 95.3716C7.71314 95.5106 7.68124 95.6701 7.68124 95.8501H6.85751C6.85751 95.5607 6.92359 95.2964 7.05575 95.0571C7.18792 94.8156 7.37932 94.6242 7.62997 94.4829C7.88062 94.3394 8.18254 94.2676 8.53573 94.2676C8.86842 94.2676 9.15097 94.3234 9.38339 94.4351C9.61581 94.5467 9.79241 94.7051 9.91318 94.9102C10.0362 95.1152 10.0977 95.3579 10.0977 95.6382C10.0977 95.7931 10.0727 95.9469 10.0226 96.0996C9.97242 96.2523 9.90064 96.4049 9.80722 96.5576C9.71607 96.708 9.60784 96.8595 9.48251 97.0122C9.35719 97.1626 9.21933 97.3153 9.06894 97.4702L7.99228 98.6562H10.2892ZM14.0704 96.4072V97.2207C14.0704 97.6104 14.0316 97.943 13.9542 98.2188C13.879 98.4922 13.7696 98.7144 13.626 98.8853C13.4825 99.0562 13.3105 99.1815 13.1099 99.2612C12.9117 99.341 12.6895 99.3809 12.4434 99.3809C12.2475 99.3809 12.0652 99.3558 11.8966 99.3057C11.7302 99.2555 11.5798 99.1769 11.4454 99.0698C11.3109 98.9627 11.1959 98.8249 11.1002 98.6562C11.0067 98.4854 10.9338 98.2814 10.8814 98.0444C10.8313 97.8075 10.8062 97.5329 10.8062 97.2207V96.4072C10.8062 96.0153 10.845 95.6849 10.9224 95.416C10.9999 95.1449 11.1104 94.925 11.254 94.7563C11.3975 94.5854 11.5684 94.4613 11.7667 94.3838C11.9672 94.3063 12.1905 94.2676 12.4366 94.2676C12.6348 94.2676 12.8171 94.2926 12.9835 94.3428C13.1521 94.3906 13.3025 94.467 13.4346 94.5718C13.5691 94.6766 13.683 94.8133 13.7764 94.9819C13.8721 95.1483 13.9451 95.3499 13.9952 95.5869C14.0453 95.8216 14.0704 96.0951 14.0704 96.4072ZM13.2467 97.3369V96.2842C13.2467 96.0859 13.2353 95.9116 13.2125 95.7612C13.1897 95.6086 13.1555 95.4798 13.1099 95.375C13.0666 95.2679 13.012 95.1813 12.9459 95.1152C12.8798 95.0469 12.8046 94.9979 12.7203 94.9683C12.636 94.9364 12.5414 94.9204 12.4366 94.9204C12.309 94.9204 12.1951 94.9455 12.0948 94.9956C11.9945 95.0435 11.9102 95.1209 11.8419 95.228C11.7735 95.3351 11.7211 95.4764 11.6846 95.6519C11.6505 95.825 11.6334 96.0358 11.6334 96.2842V97.3369C11.6334 97.5374 11.6448 97.714 11.6676 97.8667C11.6903 98.0194 11.7245 98.1504 11.7701 98.2598C11.8157 98.3669 11.8704 98.4557 11.9342 98.5264C12.0002 98.5947 12.0754 98.6449 12.1597 98.6768C12.2463 98.7087 12.3409 98.7246 12.4434 98.7246C12.5733 98.7246 12.6884 98.6995 12.7886 98.6494C12.8889 98.5993 12.9732 98.5195 13.0416 98.4102C13.1099 98.2985 13.1612 98.1538 13.1954 97.9761C13.2296 97.7983 13.2467 97.5853 13.2467 97.3369Z" fill="black"/>
<path d="M41.924 105.742H42.6896L44.1286 109.581L45.5642 105.742H46.3298L44.4294 110.719H43.821L41.924 105.742ZM41.5754 105.742H42.3034L42.4299 109.064V110.719H41.5754V105.742ZM45.9504 105.742H46.6818V110.719H45.8239V109.064L45.9504 105.742Z" fill="black"/>
<path d="M92.2351 105.742V110.719H91.384V105.742H92.2351ZM93.7971 105.742V106.426H89.8357V105.742H93.7971Z" fill="black"/>
<path d="M138.669 109.601L139.661 105.742H140.18L140.122 106.737L139.062 110.719H138.522L138.669 109.601ZM137.928 105.742L138.731 109.57L138.803 110.719H138.228L137.077 105.742H137.928ZM141.305 109.56L142.098 105.742H142.952L141.8 110.719H141.226L141.305 109.56ZM140.382 105.742L141.363 109.611L141.506 110.719H140.966L139.924 106.737L139.869 105.742H140.382Z" fill="black"/>
<path d="M186.171 105.742V110.719H185.32V105.742H186.171ZM187.733 105.742V106.426H183.772V105.742H187.733ZM191.573 107.82V108.5H188.931V107.82H191.573ZM189.143 105.742V110.719H188.285V105.742H189.143ZM192.232 105.742V110.719H191.378V105.742H192.232Z" fill="black"/>
<path d="M235.301 105.742V110.719H234.444V105.742H235.301ZM237.332 107.919V108.6H235.083V107.919H237.332ZM237.615 105.742V106.426H235.083V105.742H237.615Z" fill="black"/>
<path d="M7.81796 65.895L7.16171 65.7344L7.43173 63.2324H10.1148V63.9297H8.11532L7.97861 65.1499C8.05608 65.1043 8.16318 65.0599 8.29989 65.0166C8.43661 64.971 8.5927 64.9482 8.76816 64.9482C9.00286 64.9482 9.21249 64.987 9.39706 65.0645C9.58391 65.1396 9.74228 65.2502 9.87216 65.396C10.002 65.5396 10.1012 65.715 10.1695 65.9224C10.2379 66.1274 10.2721 66.3587 10.2721 66.6162C10.2721 66.8464 10.2379 67.0617 10.1695 67.2622C10.1034 67.4627 10.0032 67.6393 9.86874 67.792C9.7343 67.9447 9.56454 68.0643 9.35946 68.1509C9.15667 68.2352 8.91627 68.2773 8.63827 68.2773C8.43092 68.2773 8.23153 68.2477 8.04013 68.1885C7.851 68.127 7.68124 68.0369 7.53085 67.9185C7.38046 67.7977 7.25969 67.6496 7.16855 67.4741C7.0774 67.2964 7.02499 67.0924 7.01132 66.8623H7.81796C7.83847 67.0241 7.8829 67.1619 7.95126 67.2759C8.0219 67.3875 8.11532 67.473 8.23153 67.5322C8.34775 67.5915 8.48219 67.6211 8.63486 67.6211C8.77385 67.6211 8.89348 67.5972 8.99374 67.5493C9.094 67.4992 9.17717 67.4285 9.24325 67.3374C9.31161 67.244 9.36174 67.1346 9.39364 67.0093C9.42782 66.884 9.44491 66.745 9.44491 66.5923C9.44491 66.4465 9.42555 66.3132 9.38681 66.1924C9.35035 66.0716 9.29452 65.9668 9.21933 65.8779C9.14641 65.7891 9.05413 65.7207 8.94247 65.6729C8.83082 65.6227 8.70208 65.5977 8.55624 65.5977C8.36028 65.5977 8.20989 65.6261 8.10507 65.6831C8.00253 65.7401 7.90683 65.8107 7.81796 65.895ZM14.0704 65.3037V66.1172C14.0704 66.5068 14.0316 66.8395 13.9542 67.1152C13.879 67.3887 13.7696 67.6108 13.626 67.7817C13.4825 67.9526 13.3105 68.078 13.1099 68.1577C12.9117 68.2375 12.6895 68.2773 12.4434 68.2773C12.2475 68.2773 12.0652 68.2523 11.8966 68.2021C11.7302 68.152 11.5798 68.0734 11.4454 67.9663C11.3109 67.8592 11.1959 67.7214 11.1002 67.5527C11.0067 67.3818 10.9338 67.1779 10.8814 66.9409C10.8313 66.7039 10.8062 66.4294 10.8062 66.1172V65.3037C10.8062 64.9118 10.845 64.5814 10.9224 64.3125C10.9999 64.0413 11.1104 63.8215 11.254 63.6528C11.3975 63.4819 11.5684 63.3577 11.7667 63.2803C11.9672 63.2028 12.1905 63.1641 12.4366 63.1641C12.6348 63.1641 12.8171 63.1891 12.9835 63.2393C13.1521 63.2871 13.3025 63.3634 13.4346 63.4683C13.5691 63.5731 13.683 63.7098 13.7764 63.8784C13.8721 64.0448 13.9451 64.2464 13.9952 64.4834C14.0453 64.7181 14.0704 64.9915 14.0704 65.3037ZM13.2467 66.2334V65.1807C13.2467 64.9824 13.2353 64.8081 13.2125 64.6577C13.1897 64.505 13.1555 64.3763 13.1099 64.2715C13.0666 64.1644 13.012 64.0778 12.9459 64.0117C12.8798 63.9434 12.8046 63.8944 12.7203 63.8647C12.636 63.8328 12.5414 63.8169 12.4366 63.8169C12.309 63.8169 12.1951 63.842 12.0948 63.8921C11.9945 63.9399 11.9102 64.0174 11.8419 64.1245C11.7735 64.2316 11.7211 64.3729 11.6846 64.5483C11.6505 64.7215 11.6334 64.9323 11.6334 65.1807V66.2334C11.6334 66.4339 11.6448 66.6105 11.6676 66.7632C11.6903 66.9159 11.7245 67.0469 11.7701 67.1562C11.8157 67.2633 11.8704 67.3522 11.9342 67.4229C12.0002 67.4912 12.0754 67.5413 12.1597 67.5732C12.2463 67.6051 12.3409 67.6211 12.4434 67.6211C12.5733 67.6211 12.6884 67.596 12.7886 67.5459C12.8889 67.4958 12.9732 67.416 13.0416 67.3066C13.1099 67.195 13.1612 67.0503 13.1954 66.8726C13.2296 66.6948 13.2467 66.4818 13.2467 66.2334Z" fill="black"/>
<path d="M10.2071 35.7466C10.2071 36.0565 10.1353 36.3174 9.99179 36.5293C9.84823 36.7412 9.65227 36.9019 9.4039 37.0112C9.1578 37.1183 8.87981 37.1719 8.56991 37.1719C8.26002 37.1719 7.98088 37.1183 7.73251 37.0112C7.48414 36.9019 7.28818 36.7412 7.14462 36.5293C7.00107 36.3174 6.92929 36.0565 6.92929 35.7466C6.92929 35.5415 6.96917 35.3558 7.04892 35.1895C7.12867 35.0208 7.24146 34.8761 7.3873 34.7554C7.53541 34.6323 7.70859 34.5378 7.90683 34.4717C8.10735 34.4056 8.3261 34.3726 8.56308 34.3726C8.87753 34.3726 9.15894 34.4307 9.40732 34.5469C9.65569 34.6631 9.85051 34.8237 9.99179 35.0288C10.1353 35.2339 10.2071 35.4731 10.2071 35.7466ZM9.37997 35.7056C9.37997 35.5392 9.34579 35.3934 9.27743 35.2681C9.20907 35.1427 9.11337 35.0459 8.99032 34.9775C8.86728 34.9092 8.72486 34.875 8.56308 34.875C8.39902 34.875 8.2566 34.9092 8.13583 34.9775C8.01506 35.0459 7.9205 35.1427 7.85214 35.2681C7.78606 35.3934 7.75302 35.5392 7.75302 35.7056C7.75302 35.8742 7.78606 36.02 7.85214 36.1431C7.91822 36.2638 8.01278 36.3561 8.13583 36.4199C8.25888 36.4837 8.40357 36.5156 8.56991 36.5156C8.73626 36.5156 8.87981 36.4837 9.00058 36.4199C9.12135 36.3561 9.21477 36.2638 9.28085 36.1431C9.34693 36.02 9.37997 35.8742 9.37997 35.7056ZM10.0943 33.436C10.0943 33.6844 10.0282 33.9054 9.89609 34.0991C9.7662 34.2928 9.58619 34.4455 9.35605 34.5571C9.1259 34.6665 8.86386 34.7212 8.56991 34.7212C8.27369 34.7212 8.00937 34.6665 7.77695 34.5571C7.5468 34.4455 7.36565 34.2928 7.23349 34.0991C7.10361 33.9054 7.03866 33.6844 7.03866 33.436C7.03866 33.1398 7.10361 32.8903 7.23349 32.6875C7.36565 32.4824 7.5468 32.3263 7.77695 32.2192C8.00709 32.1121 8.27027 32.0586 8.5665 32.0586C8.86272 32.0586 9.1259 32.1121 9.35605 32.2192C9.58619 32.3263 9.7662 32.4824 9.89609 32.6875C10.0282 32.8903 10.0943 33.1398 10.0943 33.436ZM9.2706 33.4634C9.2706 33.3153 9.24098 33.1854 9.18173 33.0737C9.12476 32.9598 9.04387 32.8709 8.93905 32.8071C8.83424 32.7433 8.71005 32.7114 8.5665 32.7114C8.42294 32.7114 8.29876 32.7422 8.19394 32.8037C8.08912 32.8652 8.00823 32.9518 7.95126 33.0635C7.8943 33.1751 7.86581 33.3084 7.86581 33.4634C7.86581 33.616 7.8943 33.7493 7.95126 33.8633C8.00823 33.9749 8.08912 34.0627 8.19394 34.1265C8.30103 34.1903 8.42636 34.2222 8.56991 34.2222C8.71347 34.2222 8.83765 34.1903 8.94247 34.1265C9.04729 34.0627 9.12818 33.9749 9.18515 33.8633C9.24211 33.7493 9.2706 33.616 9.2706 33.4634ZM14.0704 34.1982V35.0117C14.0704 35.4014 14.0316 35.734 13.9542 36.0098C13.879 36.2832 13.7696 36.5054 13.626 36.6763C13.4825 36.8472 13.3105 36.9725 13.1099 37.0522C12.9117 37.132 12.6895 37.1719 12.4434 37.1719C12.2475 37.1719 12.0652 37.1468 11.8966 37.0967C11.7302 37.0465 11.5798 36.9679 11.4454 36.8608C11.3109 36.7537 11.1959 36.6159 11.1002 36.4473C11.0067 36.2764 10.9338 36.0724 10.8814 35.8354C10.8313 35.5985 10.8062 35.3239 10.8062 35.0117V34.1982C10.8062 33.8063 10.845 33.4759 10.9224 33.207C10.9999 32.9359 11.1104 32.716 11.254 32.5474C11.3975 32.3765 11.5684 32.2523 11.7667 32.1748C11.9672 32.0973 12.1905 32.0586 12.4366 32.0586C12.6348 32.0586 12.8171 32.0837 12.9835 32.1338C13.1521 32.1816 13.3025 32.258 13.4346 32.3628C13.5691 32.4676 13.683 32.6043 13.7764 32.7729C13.8721 32.9393 13.9451 33.141 13.9952 33.3779C14.0453 33.6126 14.0704 33.8861 14.0704 34.1982ZM13.2467 35.1279V34.0752C13.2467 33.877 13.2353 33.7026 13.2125 33.5522C13.1897 33.3996 13.1555 33.2708 13.1099 33.166C13.0666 33.0589 13.012 32.9723 12.9459 32.9062C12.8798 32.8379 12.8046 32.7889 12.7203 32.7593C12.636 32.7274 12.5414 32.7114 12.4366 32.7114C12.309 32.7114 12.1951 32.7365 12.0948 32.7866C11.9945 32.8345 11.9102 32.9119 11.8419 33.019C11.7735 33.1261 11.7211 33.2674 11.6846 33.4429C11.6505 33.616 11.6334 33.8268 11.6334 34.0752V35.1279C11.6334 35.3285 11.6448 35.505 11.6676 35.6577C11.6903 35.8104 11.7245 35.9414 11.7701 36.0508C11.8157 36.1579 11.8704 36.2467 11.9342 36.3174C12.0002 36.3857 12.0754 36.4359 12.1597 36.4678C12.2463 36.4997 12.3409 36.5156 12.4434 36.5156C12.5733 36.5156 12.6884 36.4906 12.7886 36.4404C12.8889 36.3903 12.9732 36.3105 13.0416 36.2012C13.1099 36.0895 13.1612 35.9448 13.1954 35.7671C13.2296 35.5894 13.2467 35.3763 13.2467 35.1279Z" fill="black"/>
<path d="M7.26548 1.00635V6H6.44175V1.98389L5.22154 2.39746V1.71729L7.16636 1.00635H7.26548ZM11.139 1.00635V6H10.3153V1.98389L9.09505 2.39746V1.71729L11.0399 1.00635H11.139ZM16.0071 3.09473V3.9082C16.0071 4.29785 15.9684 4.63053 15.8909 4.90625C15.8157 5.17969 15.7064 5.40186 15.5628 5.57275C15.4193 5.74365 15.2472 5.86898 15.0467 5.94873C14.8484 6.02848 14.6263 6.06836 14.3802 6.06836C14.1842 6.06836 14.0019 6.04329 13.8333 5.99316C13.667 5.94303 13.5166 5.86442 13.3821 5.75732C13.2477 5.65023 13.1326 5.51237 13.0369 5.34375C12.9435 5.17285 12.8706 4.96891 12.8182 4.73193C12.768 4.49495 12.743 4.22038 12.743 3.9082V3.09473C12.743 2.7028 12.7817 2.3724 12.8592 2.10352C12.9367 1.83236 13.0472 1.61247 13.1907 1.44385C13.3343 1.27295 13.5052 1.14876 13.7034 1.07129C13.904 0.993815 14.1273 0.955078 14.3734 0.955078C14.5716 0.955078 14.7539 0.980143 14.9202 1.03027C15.0888 1.07812 15.2392 1.15446 15.3714 1.25928C15.5058 1.3641 15.6198 1.50081 15.7132 1.66943C15.8089 1.83577 15.8818 2.03743 15.9319 2.27441C15.9821 2.50911 16.0071 2.78255 16.0071 3.09473ZM15.1834 4.02441V2.97168C15.1834 2.77344 15.172 2.59912 15.1492 2.44873C15.1264 2.29606 15.0923 2.16732 15.0467 2.0625C15.0034 1.9554 14.9487 1.86882 14.8826 1.80273C14.8165 1.73438 14.7414 1.68538 14.657 1.65576C14.5727 1.62386 14.4782 1.60791 14.3734 1.60791C14.2457 1.60791 14.1318 1.63298 14.0316 1.68311C13.9313 1.73096 13.847 1.80843 13.7786 1.91553C13.7103 2.02262 13.6579 2.1639 13.6214 2.33936C13.5872 2.51253 13.5701 2.72331 13.5701 2.97168V4.02441C13.5701 4.22493 13.5815 4.40153 13.6043 4.5542C13.6271 4.70687 13.6613 4.83789 13.7068 4.94727C13.7524 5.05436 13.8071 5.14323 13.8709 5.21387C13.937 5.28223 14.0122 5.33236 14.0965 5.36426C14.1831 5.39616 14.2776 5.41211 14.3802 5.41211C14.5101 5.41211 14.6251 5.38704 14.7254 5.33691C14.8257 5.28678 14.91 5.20703 14.9783 5.09766C15.0467 4.986 15.098 4.84131 15.1321 4.66357C15.1663 4.48584 15.1834 4.27279 15.1834 4.02441Z" fill="black"/>
<rect x="36.27" y="41" width="15.0758" height="55" fill="#7095ED"/>
<rect x="84.324" y="37" width="15.0758" height="59" fill="#4D70E7"/>
<rect x="132.378" y="19" width="15.0758" height="77" fill="#2A3EC9"/>
<rect x="180.432" y="60" width="15.0758" height="36" fill="#A2BCF4"/>
<rect x="228.487" y="36" width="15.0758" height="60" fill="#4D70E7"/>
</svg>
