<svg xmlns="http://www.w3.org/2000/svg" xmlns:xlink="http://www.w3.org/1999/xlink" width="500" zoomAndPan="magnify" viewBox="0 0 375 374.999991" height="500" preserveAspectRatio="xMidYMid meet" version="1.0"><defs><clipPath id="26898238dc"><path d="M 221 223 L 341 223 L 341 341.132812 L 221 341.132812 Z M 221 223 " clip-rule="nonzero"/></clipPath></defs><path fill="#2a3ec9" d="M 160.726562 279.367188 C 158.324219 279.371094 155.921875 279.296875 153.523438 279.148438 C 151.125 279.003906 148.734375 278.785156 146.347656 278.492188 C 143.964844 278.199219 141.589844 277.832031 139.226562 277.394531 C 136.863281 276.953125 134.515625 276.445312 132.1875 275.859375 C 129.855469 275.277344 127.542969 274.625 125.253906 273.898438 C 122.960938 273.175781 120.695312 272.378906 118.453125 271.515625 C 116.210938 270.652344 113.996094 269.71875 111.8125 268.71875 C 109.625 267.71875 107.472656 266.652344 105.355469 265.523438 C 103.234375 264.390625 101.152344 263.195312 99.105469 261.933594 C 97.058594 260.671875 95.054688 259.351562 93.089844 257.96875 C 91.125 256.585938 89.203125 255.144531 87.324219 253.644531 C 85.449219 252.140625 83.621094 250.585938 81.839844 248.972656 C 80.058594 247.359375 78.328125 245.691406 76.648438 243.972656 C 74.972656 242.253906 73.347656 240.484375 71.777344 238.664062 C 70.207031 236.84375 68.695312 234.980469 67.238281 233.066406 C 65.785156 231.15625 64.386719 229.199219 63.054688 227.203125 C 61.71875 225.203125 60.445312 223.167969 59.234375 221.089844 C 58.023438 219.015625 56.878906 216.902344 55.796875 214.757812 C 54.71875 212.613281 53.703125 210.433594 52.757812 208.226562 C 51.808594 206.015625 50.929688 203.78125 50.121094 201.519531 C 49.3125 199.257812 48.570312 196.972656 47.902344 194.664062 C 47.234375 192.355469 46.632812 190.03125 46.109375 187.683594 C 45.582031 185.339844 45.128906 182.980469 44.746094 180.609375 C 44.363281 178.238281 44.054688 175.855469 43.820312 173.464844 C 43.582031 171.070312 43.421875 168.675781 43.332031 166.273438 C 43.246094 163.871094 43.230469 161.472656 43.289062 159.070312 C 43.347656 156.667969 43.480469 154.269531 43.6875 151.875 C 43.894531 149.480469 44.171875 147.09375 44.523438 144.71875 C 44.878906 142.339844 45.304688 139.976562 45.800781 137.625 C 46.296875 135.273438 46.867188 132.941406 47.507812 130.625 C 48.152344 128.308594 48.863281 126.015625 49.644531 123.742188 C 50.425781 121.472656 51.277344 119.226562 52.195312 117.003906 C 53.117188 114.785156 54.105469 112.59375 55.15625 110.4375 C 56.210938 108.277344 57.332031 106.152344 58.515625 104.0625 C 59.703125 101.96875 60.949219 99.917969 62.261719 97.902344 C 63.570312 95.890625 64.941406 93.917969 66.375 91.988281 C 67.804688 90.058594 69.296875 88.175781 70.84375 86.335938 C 72.390625 84.496094 73.992188 82.707031 75.652344 80.96875 C 77.308594 79.226562 79.015625 77.539062 80.777344 75.90625 C 82.539062 74.269531 84.347656 72.691406 86.207031 71.167969 C 88.066406 69.644531 89.96875 68.175781 91.914062 66.769531 C 93.863281 65.363281 95.851562 64.015625 97.882812 62.730469 C 99.914062 61.445312 101.980469 60.226562 104.085938 59.066406 C 106.191406 57.910156 108.332031 56.816406 110.503906 55.789062 C 112.675781 54.765625 114.878906 53.804688 117.109375 52.914062 C 119.34375 52.023438 121.597656 51.199219 123.882812 50.445312 C 126.164062 49.695312 128.464844 49.011719 130.789062 48.402344 C 133.113281 47.789062 135.453125 47.25 137.8125 46.78125 C 140.167969 46.3125 142.539062 45.917969 144.917969 45.597656 C 147.300781 45.273438 149.691406 45.023438 152.085938 44.847656 C 154.484375 44.671875 156.882812 44.570312 159.285156 44.542969 C 161.6875 44.515625 164.089844 44.558594 166.488281 44.679688 C 168.890625 44.796875 171.285156 44.992188 173.671875 45.257812 C 176.058594 45.523438 178.4375 45.863281 180.804688 46.273438 C 183.171875 46.6875 185.527344 47.171875 187.863281 47.726562 C 190.199219 48.285156 192.519531 48.910156 194.820312 49.609375 C 197.117188 50.308594 199.394531 51.078125 201.644531 51.917969 C 203.898438 52.753906 206.121094 53.664062 208.316406 54.636719 C 210.515625 55.613281 212.679688 56.652344 214.808594 57.761719 C 216.941406 58.871094 219.039062 60.042969 221.097656 61.28125 C 223.160156 62.515625 225.179688 63.816406 227.160156 65.175781 C 229.140625 66.535156 231.078125 67.957031 232.972656 69.4375 C 234.863281 70.917969 236.710938 72.453125 238.511719 74.046875 C 240.308594 75.640625 242.058594 77.285156 243.757812 78.984375 C 245.796875 81.023438 247.757812 83.132812 249.644531 85.316406 C 251.527344 87.496094 253.328125 89.746094 255.046875 92.0625 C 256.765625 94.375 258.398438 96.75 259.941406 99.1875 C 261.484375 101.621094 262.9375 104.109375 264.296875 106.652344 C 265.65625 109.195312 266.921875 111.785156 268.09375 114.421875 C 269.261719 117.054688 270.332031 119.730469 271.304688 122.445312 C 272.277344 125.160156 273.148438 127.90625 273.917969 130.683594 C 274.6875 133.464844 275.355469 136.265625 275.917969 139.09375 C 276.480469 141.921875 276.9375 144.765625 277.292969 147.628906 C 277.644531 150.488281 277.894531 153.359375 278.035156 156.242188 C 278.175781 159.121094 278.214844 162 278.140625 164.882812 C 278.070312 167.765625 277.894531 170.640625 277.613281 173.511719 C 277.332031 176.382812 276.941406 179.238281 276.449219 182.078125 C 275.957031 184.917969 275.359375 187.738281 274.660156 190.535156 C 273.960938 193.332031 273.15625 196.097656 272.25 198.835938 C 271.347656 201.574219 270.34375 204.273438 269.238281 206.9375 C 268.136719 209.601562 266.933594 212.222656 265.636719 214.796875 C 264.339844 217.371094 262.953125 219.894531 261.46875 222.367188 C 259.984375 224.839844 258.414062 227.257812 256.753906 229.613281 C 255.09375 231.96875 253.347656 234.261719 251.515625 236.492188 C 249.6875 238.71875 247.777344 240.878906 245.789062 242.964844 C 243.800781 245.050781 241.738281 247.0625 239.601562 249 C 237.460938 250.933594 235.257812 252.789062 232.984375 254.5625 C 230.710938 256.335938 228.375 258.023438 225.976562 259.621094 C 223.578125 261.222656 221.125 262.734375 218.613281 264.152344 C 216.105469 265.574219 213.546875 266.898438 210.9375 268.128906 C 208.332031 269.363281 205.683594 270.496094 202.992188 271.53125 C 200.300781 272.566406 197.574219 273.503906 194.816406 274.335938 C 192.054688 275.171875 189.269531 275.90625 186.457031 276.535156 C 183.640625 277.164062 180.808594 277.691406 177.957031 278.109375 C 175.105469 278.53125 172.238281 278.847656 169.363281 279.058594 C 166.488281 279.265625 163.609375 279.371094 160.726562 279.367188 Z M 160.726562 70.40625 C 158.976562 70.402344 157.226562 70.449219 155.480469 70.542969 C 153.730469 70.640625 151.988281 70.785156 150.25 70.984375 C 148.507812 71.179688 146.777344 71.425781 145.050781 71.71875 C 143.328125 72.015625 141.613281 72.359375 139.90625 72.753906 C 138.199219 73.148438 136.507812 73.589844 134.828125 74.082031 C 133.148438 74.574219 131.484375 75.109375 129.835938 75.699219 C 128.183594 76.285156 126.554688 76.917969 124.941406 77.597656 C 123.328125 78.277344 121.734375 79 120.164062 79.773438 C 118.59375 80.542969 117.046875 81.359375 115.519531 82.21875 C 113.996094 83.078125 112.496094 83.980469 111.023438 84.925781 C 109.550781 85.871094 108.109375 86.859375 106.691406 87.886719 C 105.273438 88.917969 103.890625 89.984375 102.535156 91.09375 C 101.179688 92.199219 99.855469 93.347656 98.566406 94.53125 C 97.277344 95.714844 96.023438 96.933594 94.804688 98.1875 C 93.585938 99.445312 92.402344 100.734375 91.257812 102.058594 C 90.109375 103.378906 89.003906 104.734375 87.9375 106.121094 C 86.867188 107.507812 85.839844 108.925781 84.855469 110.371094 C 83.867188 111.816406 82.921875 113.289062 82.019531 114.789062 C 81.117188 116.289062 80.261719 117.8125 79.445312 119.363281 C 78.628906 120.910156 77.859375 122.480469 77.136719 124.074219 C 76.410156 125.667969 75.730469 127.28125 75.097656 128.914062 C 74.46875 130.542969 73.882812 132.195312 73.34375 133.859375 C 72.804688 135.523438 72.316406 137.203125 71.875 138.898438 C 71.433594 140.589844 71.039062 142.296875 70.695312 144.011719 C 70.351562 145.730469 70.058594 147.453125 69.8125 149.1875 C 69.566406 150.917969 69.371094 152.65625 69.226562 154.402344 C 69.082031 156.148438 68.984375 157.894531 68.941406 159.644531 C 68.894531 161.394531 68.898438 163.140625 68.953125 164.890625 C 69.007812 166.640625 69.113281 168.386719 69.269531 170.132812 C 69.425781 171.875 69.628906 173.613281 69.882812 175.34375 C 70.140625 177.074219 70.441406 178.796875 70.796875 180.511719 C 71.148438 182.226562 71.550781 183.929688 72.003906 185.621094 C 72.453125 187.3125 72.953125 188.988281 73.5 190.652344 C 74.046875 192.3125 74.640625 193.960938 75.28125 195.589844 C 75.925781 197.214844 76.613281 198.824219 77.34375 200.414062 C 78.078125 202.003906 78.859375 203.570312 79.679688 205.113281 C 80.503906 206.660156 81.371094 208.179688 82.28125 209.671875 C 83.191406 211.167969 84.144531 212.636719 85.140625 214.078125 C 86.132812 215.515625 87.167969 216.925781 88.246094 218.308594 C 89.320312 219.6875 90.433594 221.039062 91.585938 222.355469 C 92.738281 223.671875 93.929688 224.953125 95.15625 226.203125 C 96.382812 227.453125 97.644531 228.664062 98.941406 229.839844 C 100.234375 231.019531 101.5625 232.15625 102.925781 233.257812 C 104.285156 234.355469 105.675781 235.417969 107.097656 236.4375 C 108.519531 237.460938 109.972656 238.4375 111.449219 239.375 C 112.925781 240.3125 114.429688 241.207031 115.960938 242.058594 C 117.488281 242.910156 119.042969 243.71875 120.617188 244.480469 C 122.191406 245.242188 123.789062 245.957031 125.40625 246.628906 C 127.023438 247.300781 128.65625 247.925781 130.308594 248.5 C 131.960938 249.078125 133.628906 249.609375 135.3125 250.089844 C 136.996094 250.570312 138.691406 251.003906 140.398438 251.390625 C 142.105469 251.773438 143.820312 252.109375 145.546875 252.394531 C 147.273438 252.679688 149.007812 252.917969 150.75 253.105469 C 152.488281 253.289062 154.234375 253.425781 155.980469 253.515625 C 157.730469 253.601562 159.480469 253.636719 161.230469 253.625 C 162.980469 253.609375 164.726562 253.546875 166.472656 253.433594 C 168.222656 253.320312 169.964844 253.15625 171.699219 252.941406 C 173.4375 252.726562 175.167969 252.464844 176.890625 252.152344 C 178.609375 251.839844 180.324219 251.476562 182.023438 251.066406 C 183.726562 250.65625 185.414062 250.195312 187.089844 249.6875 C 188.765625 249.179688 190.421875 248.625 192.066406 248.023438 C 193.710938 247.421875 195.335938 246.773438 196.941406 246.074219 C 198.546875 245.378906 200.132812 244.640625 201.695312 243.851562 C 203.257812 243.066406 204.796875 242.234375 206.3125 241.359375 C 207.828125 240.484375 209.320312 239.566406 210.78125 238.605469 C 212.246094 237.648438 213.679688 236.644531 215.085938 235.601562 C 216.492188 234.558594 217.867188 233.476562 219.210938 232.355469 C 220.554688 231.234375 221.867188 230.078125 223.144531 228.878906 C 224.421875 227.683594 225.664062 226.453125 226.871094 225.183594 C 228.078125 223.917969 229.246094 222.613281 230.378906 221.28125 C 231.511719 219.945312 232.605469 218.578125 233.660156 217.183594 C 234.710938 215.785156 235.726562 214.359375 236.699219 212.902344 C 237.667969 211.449219 238.601562 209.964844 239.488281 208.457031 C 240.375 206.949219 241.21875 205.414062 242.015625 203.859375 C 242.816406 202.300781 243.570312 200.722656 244.28125 199.121094 C 244.988281 197.523438 245.652344 195.902344 246.265625 194.265625 C 246.882812 192.625 247.453125 190.972656 247.972656 189.300781 C 248.496094 187.628906 248.96875 185.945312 249.390625 184.246094 C 249.816406 182.550781 250.191406 180.839844 250.519531 179.121094 C 250.847656 177.402344 251.125 175.675781 251.351562 173.9375 C 251.578125 172.203125 251.757812 170.464844 251.886719 168.71875 C 252.011719 166.972656 252.089844 165.222656 252.121094 163.472656 C 252.148438 161.722656 252.125 159.976562 252.050781 158.226562 C 251.980469 156.476562 251.859375 154.730469 251.683594 152.988281 C 251.511719 151.25 251.289062 149.511719 251.019531 147.785156 C 250.746094 146.054688 250.425781 144.335938 250.054688 142.625 C 249.683594 140.914062 249.265625 139.214844 248.796875 137.527344 C 248.328125 135.84375 247.8125 134.171875 247.25 132.511719 C 246.6875 130.855469 246.074219 129.214844 245.417969 127.59375 C 244.761719 125.972656 244.058594 124.371094 243.308594 122.789062 C 242.558594 121.207031 241.765625 119.648438 240.925781 118.113281 C 240.085938 116.574219 239.203125 115.066406 238.277344 113.578125 C 237.355469 112.09375 236.386719 110.636719 235.378906 109.207031 C 234.367188 107.773438 233.320312 106.375 232.230469 105.003906 C 231.140625 103.636719 230.011719 102.296875 228.847656 100.992188 C 227.679688 99.6875 226.480469 98.414062 225.242188 97.179688 C 223.128906 95.066406 220.917969 93.058594 218.605469 91.164062 C 216.296875 89.265625 213.898438 87.488281 211.414062 85.824219 C 208.929688 84.164062 206.371094 82.628906 203.738281 81.214844 C 201.101562 79.804688 198.402344 78.527344 195.644531 77.382812 C 192.882812 76.238281 190.074219 75.230469 187.214844 74.359375 C 184.355469 73.488281 181.457031 72.761719 178.527344 72.175781 C 175.597656 71.589844 172.644531 71.148438 169.671875 70.855469 C 166.695312 70.558594 163.714844 70.410156 160.726562 70.40625 Z M 160.726562 70.40625 " fill-opacity="1" fill-rule="nonzero"/><g clip-path="url(#26898238dc)"><path fill="#2a3ec9" d="M 327.171875 341.367188 C 325.464844 341.359375 323.824219 341.027344 322.246094 340.367188 C 320.671875 339.707031 319.28125 338.773438 318.078125 337.558594 L 225.5 245.046875 C 224.898438 244.445312 224.363281 243.792969 223.894531 243.089844 C 223.421875 242.386719 223.023438 241.640625 222.699219 240.859375 C 222.375 240.074219 222.128906 239.265625 221.964844 238.4375 C 221.800781 237.605469 221.71875 236.765625 221.71875 235.917969 C 221.71875 235.070312 221.800781 234.230469 221.964844 233.398438 C 222.128906 232.566406 222.375 231.761719 222.699219 230.976562 C 223.023438 230.195312 223.421875 229.449219 223.894531 228.746094 C 224.363281 228.039062 224.898438 227.386719 225.5 226.789062 C 226.097656 226.1875 226.75 225.652344 227.453125 225.183594 C 228.160156 224.710938 228.902344 224.316406 229.6875 223.988281 C 230.46875 223.664062 231.277344 223.421875 232.109375 223.253906 C 232.941406 223.089844 233.78125 223.007812 234.628906 223.007812 C 235.476562 223.007812 236.3125 223.089844 237.144531 223.253906 C 237.976562 223.421875 238.785156 223.664062 239.566406 223.988281 C 240.351562 224.316406 241.09375 224.710938 241.800781 225.183594 C 242.503906 225.652344 243.15625 226.1875 243.757812 226.789062 L 336.269531 319.367188 C 337.167969 320.269531 337.914062 321.28125 338.511719 322.40625 C 339.109375 323.527344 339.53125 324.714844 339.777344 325.960938 C 340.023438 327.210938 340.085938 328.464844 339.960938 329.730469 C 339.835938 330.996094 339.527344 332.21875 339.042969 333.394531 C 338.558594 334.570312 337.910156 335.648438 337.105469 336.632812 C 336.300781 337.617188 335.371094 338.464844 334.3125 339.175781 C 333.257812 339.882812 332.121094 340.425781 330.90625 340.796875 C 329.6875 341.171875 328.445312 341.359375 327.171875 341.367188 Z M 327.171875 341.367188 " fill-opacity="1" fill-rule="nonzero"/></g></svg>