<svg xmlns="http://www.w3.org/2000/svg" xmlns:xlink="http://www.w3.org/1999/xlink" width="500" zoomAndPan="magnify" viewBox="0 0 375 374.999991" height="500" preserveAspectRatio="xMidYMid meet" version="1.0"><defs><clipPath id="e928c77a50"><path d="M 47.300781 47.300781 L 327.800781 47.300781 L 327.800781 327.800781 L 47.300781 327.800781 Z M 47.300781 47.300781 " clip-rule="nonzero"/></clipPath></defs><g clip-path="url(#e928c77a50)"><path fill="#2a3ec9" d="M 187.523438 47.300781 C 264.964844 47.300781 327.75 110.085938 327.75 187.523438 C 327.75 264.964844 264.964844 327.75 187.523438 327.75 C 110.085938 327.75 47.300781 264.964844 47.300781 187.523438 C 47.300781 110.085938 110.085938 47.300781 187.523438 47.300781 Z M 204.574219 96.886719 C 215.144531 96.886719 223.714844 105.457031 223.714844 116.027344 C 223.714844 126.609375 215.144531 135.179688 204.574219 135.179688 C 194.003906 135.179688 185.421875 126.609375 185.421875 116.027344 C 185.421875 105.457031 193.992188 96.886719 204.574219 96.886719 Z M 152.242188 168.320312 C 164.613281 143.289062 217.3125 135.164062 207.925781 169.449219 C 202.5625 189.035156 188.351562 241 186.144531 249.714844 C 183.410156 260.507812 195.78125 261.085938 209.03125 255.183594 C 197.765625 284.25 140.871094 288.902344 153.03125 250.4375 C 153.03125 250.4375 169.148438 191.691406 173.550781 178.386719 C 178.429688 163.640625 161.824219 163.457031 152.242188 168.304688 Z M 187.539062 60.566406 C 117.417969 60.566406 60.589844 117.40625 60.589844 187.511719 C 60.589844 257.628906 117.433594 314.457031 187.539062 314.457031 C 257.65625 314.457031 314.484375 257.617188 314.484375 187.511719 C 314.484375 117.394531 257.644531 60.566406 187.539062 60.566406 Z M 187.539062 60.566406 " fill-opacity="1" fill-rule="nonzero"/></g></svg>