<svg width="600" height="390" viewBox="0 0 600 390" fill="none" xmlns="http://www.w3.org/2000/svg">
<g clip-path="url(#clip0_584_443)">
<path d="M26.1288 305.188C25.7143 302.191 30.0849 289.447 31.299 286.639C38.4472 270.11 63.5697 207.091 32.4835 181.388C-2.64763 152.31 -20.225 88.1356 39.0691 62.0656C84.7715 41.9772 113.755 -33.1946 200.476 16.9377C287.196 67.07 345.388 7.91208 383.812 10.9206C422.236 13.9291 501.281 12.9283 518.841 74.0879C536.4 135.248 645.093 161.323 578.123 244.55C511.154 327.776 573.747 365.88 492.504 380.911C411.262 395.941 423.344 368.877 337.713 373.893C252.083 378.909 247.694 388.935 160.962 389.936C79.6606 390.884 30.1856 334.539 26.1288 305.188Z" fill="#C6D4F8"/>
<path d="M47.0168 243.181L577.726 245.289L591.537 224.123C591.537 224.123 540.463 178.806 482.519 198.065C432.891 214.576 372.548 184.29 345.157 183.17C278.768 180.458 260.883 221.938 221.044 221.938C181.204 221.938 164.782 180.796 119.648 187.381C74.5141 193.967 47.0168 243.181 47.0168 243.181Z" fill="#A2BCF4"/>
<path d="M173.47 243.271C173.47 243.271 182.632 243.863 184.13 243.271C185.628 242.679 183.621 241.092 180.577 241.092C177.533 241.092 176.105 241.044 174.577 241.423C174.38 241.465 174.192 241.547 174.028 241.665C173.863 241.782 173.724 241.932 173.62 242.106C173.516 242.279 173.449 242.472 173.423 242.673C173.398 242.873 173.413 243.077 173.47 243.271Z" fill="#2A3EC9"/>
<path d="M176.656 240.76C176.656 240.76 172.546 236.875 174.21 236.762C175.874 236.65 177.432 237.651 177.651 238.427C177.87 239.202 177.876 235.537 178.984 235.649C180.091 235.762 180.648 236.982 180.204 238.539C180.204 238.539 181.649 237.319 182.981 237.319C184.314 237.319 184.094 238.983 183.313 239.54C182.531 240.097 180.204 241.542 180.204 241.542H176.538L176.656 240.76Z" fill="#2A3EC9"/>
<path d="M467.27 244.047C467.27 244.047 476.432 244.639 477.93 244.047C479.428 243.454 477.421 241.867 474.377 241.867C471.332 241.867 469.905 241.82 468.377 242.199C468.179 242.24 467.992 242.323 467.827 242.44C467.663 242.557 467.524 242.707 467.42 242.881C467.316 243.054 467.249 243.247 467.223 243.448C467.197 243.649 467.213 243.852 467.27 244.047Z" fill="#2A3EC9"/>
<path d="M470.456 241.535C470.456 241.535 466.346 237.65 468.01 237.538C469.674 237.425 471.232 238.426 471.451 239.202C471.67 239.978 471.676 236.312 472.783 236.424C473.891 236.537 474.448 237.757 474.003 239.314C474.003 239.314 475.448 238.094 476.781 238.094C478.113 238.094 477.894 239.759 477.113 240.315C476.331 240.872 474.003 242.317 474.003 242.317H470.337L470.456 241.535Z" fill="#2A3EC9"/>
<path d="M106.986 244.437C106.986 244.437 116.148 245.029 117.646 244.437C119.145 243.845 117.137 242.258 114.093 242.258C111.049 242.258 109.622 242.21 108.094 242.589C107.896 242.631 107.709 242.713 107.544 242.831C107.379 242.948 107.241 243.098 107.137 243.272C107.033 243.445 106.966 243.638 106.94 243.839C106.914 244.039 106.93 244.243 106.986 244.437Z" fill="#2A3EC9"/>
<path d="M110.172 241.92C110.172 241.92 106.062 238.035 107.727 237.923C109.391 237.81 110.948 238.811 111.167 239.587C111.387 240.363 111.392 236.697 112.5 236.809C113.607 236.922 114.164 238.142 113.72 239.699C113.72 239.699 115.165 238.479 116.497 238.479C117.83 238.479 117.611 240.143 116.829 240.7C116.047 241.257 113.72 242.702 113.72 242.702H110.054L110.172 241.92Z" fill="#2A3EC9"/>
<path d="M508.566 244.923C508.566 244.923 517.728 245.516 519.226 244.923C520.724 244.331 518.717 242.744 515.673 242.744C512.629 242.744 511.201 242.697 509.673 243.076C509.475 243.117 509.288 243.2 509.124 243.317C508.959 243.434 508.82 243.584 508.716 243.758C508.612 243.931 508.545 244.124 508.519 244.325C508.494 244.526 508.509 244.729 508.566 244.923Z" fill="#2A3EC9"/>
<path d="M511.752 242.412C511.752 242.412 507.642 238.527 509.306 238.415C510.97 238.302 512.528 239.303 512.747 240.079C512.966 240.855 512.972 237.189 514.08 237.301C515.187 237.414 515.744 238.634 515.299 240.191C515.299 240.191 516.745 238.971 518.077 238.971C519.41 238.971 519.19 240.636 518.409 241.192C517.627 241.749 515.299 243.194 515.299 243.194H511.634L511.752 242.412Z" fill="#2A3EC9"/>
<path d="M69.5512 243.461C69.5512 243.461 78.713 244.053 80.2114 243.461C81.7097 242.868 79.7021 241.281 76.658 241.281C73.6139 241.281 72.1867 241.234 70.6587 241.613C70.4608 241.655 70.2737 241.737 70.109 241.854C69.9443 241.971 69.8056 242.122 69.7016 242.295C69.5977 242.468 69.5306 242.662 69.5047 242.862C69.4789 243.063 69.4947 243.266 69.5512 243.461Z" fill="#2A3EC9"/>
<path d="M72.7376 240.949C72.7376 240.949 68.6275 237.064 70.2917 236.952C71.9559 236.839 73.5134 237.84 73.7326 238.616C73.9517 239.392 73.9576 235.726 75.0651 235.838C76.1726 235.951 76.7293 237.171 76.2851 238.729C76.2851 238.729 77.7301 237.509 79.0626 237.509C80.3952 237.509 80.176 239.173 79.3943 239.729C78.6125 240.286 76.2851 241.731 76.2851 241.731H72.6192L72.7376 240.949Z" fill="#2A3EC9"/>
<path d="M532.042 245.101C532.042 245.101 541.204 245.693 542.702 245.101C544.2 244.509 542.193 242.922 539.149 242.922C536.105 242.922 534.677 242.874 533.149 243.253C532.952 243.295 532.764 243.377 532.6 243.495C532.435 243.612 532.296 243.762 532.192 243.936C532.088 244.109 532.021 244.302 531.995 244.503C531.97 244.703 531.985 244.907 532.042 245.101Z" fill="#2A3EC9"/>
<path d="M535.228 242.59C535.228 242.59 531.118 238.705 532.782 238.592C534.446 238.48 536.004 239.481 536.223 240.257C536.442 241.032 536.448 237.367 537.556 237.479C538.663 237.592 539.22 238.812 538.776 240.369C538.776 240.369 540.221 239.149 541.553 239.149C542.886 239.149 542.667 240.813 541.885 241.37C541.103 241.927 538.776 243.372 538.776 243.372H535.11L535.228 242.59Z" fill="#2A3EC9"/>
<path d="M419.838 244.585L419.293 227.262C419.293 227.262 398.05 226.273 407.135 209.673C407.135 209.673 409.326 209.359 409.326 206.54C409.326 203.721 404.316 203.721 403.996 201.844C403.676 199.966 403.682 195.922 408.692 192.451C413.702 188.981 402.426 181.199 402.118 179.925C401.81 178.652 402.118 175.543 405.565 172.41C409.012 169.277 409.948 165.836 409.634 162.703C409.32 159.57 400.863 155.502 404.623 152.369C408.384 149.236 416.213 146.731 416.835 144.226C417.457 141.721 416.521 130.444 424.037 133.264C431.552 136.083 448.152 132.636 451.599 132.95C453.978 133.109 456.288 133.813 458.351 135.007C460.414 136.202 462.174 137.854 463.497 139.837C467.258 145.167 469.763 141.401 471.326 145.167C472.89 148.934 469.449 161.158 472.268 164.273C475.087 167.388 479.47 169.911 477.598 175.525C475.727 181.139 468.827 184.61 468.827 186.777C468.827 188.945 471.96 196.484 471.96 198.675C471.96 200.867 470.705 204.313 466.95 204.941C463.195 205.569 462.881 207.446 462.881 211.515C462.881 215.584 460.062 212.457 460.062 212.457L460.69 243.46H455.994C455.994 243.46 455.994 214.962 455.052 211.829H451.919L452.233 243.46H448.472L448.158 215.276C448.158 215.276 443.462 209.638 441.585 209.353C439.707 209.069 442.84 244.117 442.84 244.117H439.393L438.452 212.172C438.452 212.172 436.888 218.438 435.319 218.438C433.749 218.438 435.947 243.803 435.947 243.803H432.5L431.244 218.124C431.244 218.124 429.367 214.677 427.797 219.066C426.228 223.454 425.109 219.925 425.429 221.802C425.748 223.679 425.837 244.579 425.837 244.579L419.838 244.585Z" fill="#2A3EC9"/>
<path d="M150.574 242.821L155.555 242.992L155.306 225.51C155.306 225.51 159.991 220.825 163.112 221.139C166.233 221.453 173.411 223.01 177.474 218.954C181.536 214.897 178.409 210.526 180.595 210.526C182.78 210.526 178.723 205.534 178.723 203.348C178.723 201.939 182.898 179.659 173.754 181.85C165.724 183.752 162.076 169.046 153.311 174.661C146.387 179.097 137.078 176.491 136.438 180.844C134.892 191.285 125.967 187.98 127.258 193.979C129.13 202.721 127.851 206.469 131.588 207.405C135.324 208.341 130.652 212.398 132.209 215.525C133.767 218.652 132.523 221.767 136.894 221.767C141.265 221.767 144.072 223.016 146.885 223.638C149.698 224.26 150.32 225.824 150.32 225.824L150.574 242.821Z" fill="#2A3EC9"/>
<path d="M551.076 244.698L556.057 244.869L555.808 227.387C555.808 227.387 560.493 222.702 563.614 223.016C566.735 223.33 573.913 224.887 577.975 220.831C582.038 216.774 578.911 212.403 581.096 212.403C583.282 212.403 579.225 207.411 579.225 205.225C579.225 203.816 583.4 181.536 574.256 183.727C566.225 185.628 562.577 170.923 553.812 176.538C546.889 180.974 537.579 178.368 536.94 182.721C535.394 193.162 526.469 189.857 527.76 195.856C529.631 204.598 528.352 208.346 532.089 209.282C535.826 210.218 531.154 214.275 532.711 217.402C534.269 220.529 533.025 223.644 537.396 223.644C541.766 223.644 544.573 224.893 547.387 225.515C550.2 226.137 550.821 227.701 550.821 227.701L551.076 244.698Z" fill="#2A3EC9"/>
<path d="M96.2431 242.778L101.224 242.992L100.981 221.351C100.981 221.351 105.665 215.553 108.786 215.944C111.908 216.335 119.085 218.26 123.148 213.238C127.211 208.216 124.084 202.803 126.269 202.803C128.454 202.803 124.398 196.62 124.398 193.919C124.398 192.172 128.573 164.628 119.429 167.304C111.398 169.673 107.75 151.456 98.9851 158.421C92.0619 163.911 82.7521 160.689 82.1125 166.073C80.5667 178.995 71.6418 174.909 72.9329 182.335C74.8043 193.155 73.5251 197.798 77.2621 198.959C80.9991 200.12 76.3264 205.142 77.8839 209.027C79.4415 212.912 78.1978 216.726 82.5684 216.726C86.9391 216.726 89.7463 218.272 92.5594 219.042C95.3725 219.812 95.9943 221.748 95.9943 221.748L96.2431 242.778Z" fill="#2A3EC9"/>
<path d="M129.467 242.82L136.254 243.01V155.644C136.254 155.644 154.193 158.605 156.183 154.649C158.173 150.693 157.841 149.319 163.822 149.319C169.804 149.319 172.114 148.987 169.153 143.669C166.191 138.351 161.844 144.332 166.191 138.339C170.538 132.345 179.44 128.739 173.458 125.067C167.477 121.395 157.515 128.028 157.515 121.081C157.515 114.134 154.554 115.431 156.189 108.461C157.823 101.49 158.516 102.148 158.184 95.1711C157.853 88.1946 158.516 84.8722 158.848 82.8823C159.179 80.8924 154.199 77.2325 150.556 73.5843C146.914 69.9362 146.239 65.2931 139.263 66.2762C132.286 67.2593 129.965 67.6028 131.955 73.5843C133.944 79.5659 124.978 74.9109 123.663 76.9067C122.349 78.9026 124.658 80.8924 120.702 82.2368C116.746 83.5812 118.043 83.2318 122.36 85.8909C126.678 88.55 123.687 90.8715 120.702 90.8715C117.717 90.8715 114.389 84.89 113.726 87.5491C113.062 90.2082 109.077 88.8757 111.73 96.1839C114.383 103.492 114.389 102.165 113.056 103.492C111.724 104.819 111.398 104.819 113.056 106.453C114.715 108.088 105.417 105.127 105.417 108.781C105.417 112.435 104.753 119.411 107.075 124.392C109.396 129.372 97.7769 125.387 98.1086 127.714C98.4402 130.042 98.7719 132.363 101.07 133.044C103.368 133.725 109.704 133.708 105.719 135.372C101.733 137.036 93.4299 142.348 93.4299 143.663C93.4299 144.978 93.7616 147.98 98.0789 149.313C102.396 150.645 98.4106 155.294 102.396 155.626C106.382 155.958 112.032 155.626 116.681 153.968C121.33 152.31 127.311 151.972 128.306 154.631C129.301 157.29 131.268 155.294 131.268 155.294L129.467 242.82Z" fill="#4D70E7"/>
<path d="M502.152 245.012L496.046 245.178V168.247C496.046 168.247 479.914 170.883 478.119 167.371C476.325 163.859 476.627 162.692 471.249 162.692C465.872 162.692 463.781 162.402 466.47 157.717C469.159 153.033 473.044 158.31 469.159 153.039C465.274 147.768 463.568 143.818 468.946 140.602C474.323 137.386 472.327 138.405 472.327 132.263C472.327 126.122 479.612 132.856 478.119 126.714C476.627 120.573 471.35 121.272 471.652 115.13C471.954 108.989 476.029 105.945 475.733 104.192C475.437 102.439 479.914 99.2169 483.201 96.0011C486.488 92.7853 487.086 88.687 493.357 89.5635C499.629 90.44 501.726 90.748 499.931 96.0011C498.137 101.254 506.209 97.1855 507.399 98.9267C508.59 100.668 506.505 102.439 510.088 103.605C513.671 104.772 512.457 104.482 508.595 106.821C504.734 109.16 507.411 111.21 510.088 111.21C512.765 111.21 515.767 105.945 516.366 108.284C516.964 110.623 520.547 109.468 518.142 115.888C515.738 122.308 515.773 121.153 516.958 122.326C518.142 123.498 518.45 123.51 516.958 124.961C515.465 126.412 523.828 123.777 523.828 127.01C523.828 130.244 524.42 136.373 522.335 140.756C520.251 145.138 530.703 141.632 530.401 143.682C530.099 145.731 529.809 147.774 527.713 148.36C525.616 148.946 519.943 148.952 523.532 150.409C527.12 151.866 526.889 154.975 526.889 156.148C526.889 157.321 529.329 161.336 525.444 162.509C521.559 163.681 530.105 167.963 526.522 168.253C522.186 168.604 517.823 168.108 513.677 166.79C509.496 165.328 504.112 165.014 503.218 167.383C502.324 169.752 500.529 167.975 500.529 167.975L502.152 245.012Z" fill="#4D70E7"/>
<path d="M189.981 267.32V281.534H420.359V267.913L189.981 267.32Z" fill="#2735A3"/>
<path d="M214.855 218.758L214.488 268.108H221.411L221.37 218.758H214.855Z" fill="#2735A3"/>
<path d="M388.971 218.758L389.486 268.428H396.107L396.077 218.758H388.971Z" fill="#2735A3"/>
<path d="M202.424 218.759C202.424 218.759 204.201 212.244 208.939 212.244L400.383 212.292C401.028 212.291 401.663 212.452 402.231 212.759C403.848 213.63 407.052 215.721 407.928 218.759H202.424Z" fill="#4D70E7"/>
<path d="M201.388 225.982V231.478L407.739 231.638L407.579 226.308L201.388 225.982Z" fill="#4D70E7"/>
<path d="M201.388 237.828V243.324L407.739 243.484L407.579 238.154L201.388 237.828Z" fill="#4D70E7"/>
<path d="M201.388 251.449V256.945L407.739 257.105L407.579 251.775L201.388 251.449Z" fill="#4D70E7"/>
<path d="M201.388 262.109V267.605L407.739 267.765L407.579 262.435L201.388 262.109Z" fill="#4D70E7"/>
<path d="M210.917 281.57L211.083 317.448H227.404L227.884 281.57H210.917Z" fill="#4D70E7"/>
<path d="M383.504 281.57L383.824 317.933H400.951L400.632 281.41L383.504 281.57Z" fill="#4D70E7"/>
<path d="M218.71 105.098C227.044 105.098 233.8 98.342 233.8 90.008C233.8 81.674 227.044 74.918 218.71 74.918C210.376 74.918 203.62 81.674 203.62 90.008C203.62 98.342 210.376 105.098 218.71 105.098Z" fill="#2A3EC9"/>
</g>
<defs>
<clipPath id="clip0_584_443">
<rect width="600" height="389.954" fill="white"/>
</clipPath>
</defs>
</svg>
