<svg xmlns="http://www.w3.org/2000/svg" xmlns:xlink="http://www.w3.org/1999/xlink" width="1920" zoomAndPan="magnify" viewBox="0 0 1440 809.999993" height="1080" preserveAspectRatio="xMidYMid meet" version="1.0"><defs><clipPath id="502d9edbca"><path d="M 102.59375 81 L 174.074219 81 L 174.074219 152.480469 L 102.59375 152.480469 Z M 102.59375 81 " clip-rule="nonzero"/></clipPath><clipPath id="ea5b7c90ba"><path d="M 138.335938 81 C 118.597656 81 102.59375 97 102.59375 116.742188 C 102.59375 136.480469 118.597656 152.480469 138.335938 152.480469 C 158.074219 152.480469 174.074219 136.480469 174.074219 116.742188 C 174.074219 97 158.074219 81 138.335938 81 Z M 138.335938 81 " clip-rule="nonzero"/></clipPath><clipPath id="5ac15a6b60"><path d="M 1387.007812 671.8125 L 1440 671.8125 L 1440 743.292969 L 1387.007812 743.292969 Z M 1387.007812 671.8125 " clip-rule="nonzero"/></clipPath><clipPath id="9a4d722c5b"><path d="M 1422.746094 671.8125 C 1403.007812 671.8125 1387.007812 687.8125 1387.007812 707.554688 C 1387.007812 727.292969 1403.007812 743.292969 1422.746094 743.292969 C 1442.484375 743.292969 1458.488281 727.292969 1458.488281 707.554688 C 1458.488281 687.8125 1442.484375 671.8125 1422.746094 671.8125 Z M 1422.746094 671.8125 " clip-rule="nonzero"/></clipPath><clipPath id="c9d295456c"><path d="M 1323.699219 280.011719 L 1383.511719 280.011719 L 1383.511719 339.824219 L 1323.699219 339.824219 Z M 1323.699219 280.011719 " clip-rule="nonzero"/></clipPath><clipPath id="0d1fe03cf5"><path d="M 1353.605469 280.011719 C 1337.089844 280.011719 1323.699219 293.402344 1323.699219 309.917969 C 1323.699219 326.433594 1337.089844 339.824219 1353.605469 339.824219 C 1370.121094 339.824219 1383.511719 326.433594 1383.511719 309.917969 C 1383.511719 293.402344 1370.121094 280.011719 1353.605469 280.011719 Z M 1353.605469 280.011719 " clip-rule="nonzero"/></clipPath><clipPath id="f64ad12c96"><path d="M 37.75 658.023438 L 92.894531 658.023438 L 92.894531 713.171875 L 37.75 713.171875 Z M 37.75 658.023438 " clip-rule="nonzero"/></clipPath><clipPath id="2f09776c5d"><path d="M 65.320312 658.023438 C 50.09375 658.023438 37.75 670.371094 37.75 685.597656 C 37.75 700.828125 50.09375 713.171875 65.320312 713.171875 C 80.550781 713.171875 92.894531 700.828125 92.894531 685.597656 C 92.894531 670.371094 80.550781 658.023438 65.320312 658.023438 Z M 65.320312 658.023438 " clip-rule="nonzero"/></clipPath><clipPath id="2bd7b0db2e"><path d="M 138.335938 658.023438 L 165.910156 658.023438 L 165.910156 685.597656 L 138.335938 685.597656 Z M 138.335938 658.023438 " clip-rule="nonzero"/></clipPath><clipPath id="98c178ba14"><path d="M 152.121094 658.023438 C 144.507812 658.023438 138.335938 664.199219 138.335938 671.8125 C 138.335938 679.425781 144.507812 685.597656 152.121094 685.597656 C 159.734375 685.597656 165.910156 679.425781 165.910156 671.8125 C 165.910156 664.199219 159.734375 658.023438 152.121094 658.023438 Z M 152.121094 658.023438 " clip-rule="nonzero"/></clipPath><clipPath id="d195c53a44"><path d="M 116.164062 729 L 215.652344 729 L 215.652344 810 L 116.164062 810 Z M 116.164062 729 " clip-rule="nonzero"/></clipPath><clipPath id="842d7b50df"><path d="M 165.910156 729 C 138.433594 729 116.164062 751.269531 116.164062 778.742188 C 116.164062 806.214844 138.433594 828.488281 165.910156 828.488281 C 193.382812 828.488281 215.652344 806.214844 215.652344 778.742188 C 215.652344 751.269531 193.382812 729 165.910156 729 Z M 165.910156 729 " clip-rule="nonzero"/></clipPath><clipPath id="6b94c43d10"><path d="M 1328.363281 582.222656 L 1383.511719 582.222656 L 1383.511719 637.367188 L 1328.363281 637.367188 Z M 1328.363281 582.222656 " clip-rule="nonzero"/></clipPath><clipPath id="d9687a9738"><path d="M 1355.9375 582.222656 C 1340.707031 582.222656 1328.363281 594.566406 1328.363281 609.796875 C 1328.363281 625.023438 1340.707031 637.367188 1355.9375 637.367188 C 1371.164062 637.367188 1383.511719 625.023438 1383.511719 609.796875 C 1383.511719 594.566406 1371.164062 582.222656 1355.9375 582.222656 Z M 1355.9375 582.222656 " clip-rule="nonzero"/></clipPath><clipPath id="1f42901a02"><path d="M 899.195312 476.042969 L 954.339844 476.042969 L 954.339844 531.1875 L 899.195312 531.1875 Z M 899.195312 476.042969 " clip-rule="nonzero"/></clipPath><clipPath id="1a8b579847"><path d="M 926.765625 476.042969 C 911.539062 476.042969 899.195312 488.386719 899.195312 503.613281 C 899.195312 518.84375 911.539062 531.1875 926.765625 531.1875 C 941.996094 531.1875 954.339844 518.84375 954.339844 503.613281 C 954.339844 488.386719 941.996094 476.042969 926.765625 476.042969 Z M 926.765625 476.042969 " clip-rule="nonzero"/></clipPath><clipPath id="89b6dea8d1"><path d="M 1015.597656 152.480469 L 1070.746094 152.480469 L 1070.746094 207.628906 L 1015.597656 207.628906 Z M 1015.597656 152.480469 " clip-rule="nonzero"/></clipPath><clipPath id="6f752c50bc"><path d="M 1043.171875 152.480469 C 1027.945312 152.480469 1015.597656 164.828125 1015.597656 180.054688 C 1015.597656 195.28125 1027.945312 207.628906 1043.171875 207.628906 C 1058.398438 207.628906 1070.746094 195.28125 1070.746094 180.054688 C 1070.746094 164.828125 1058.398438 152.480469 1043.171875 152.480469 Z M 1043.171875 152.480469 " clip-rule="nonzero"/></clipPath><clipPath id="538522f57c"><path d="M 507.675781 296.132812 L 535.246094 296.132812 L 535.246094 323.703125 L 507.675781 323.703125 Z M 507.675781 296.132812 " clip-rule="nonzero"/></clipPath><clipPath id="69f65c2b11"><path d="M 521.460938 296.132812 C 513.847656 296.132812 507.675781 302.304688 507.675781 309.917969 C 507.675781 317.53125 513.847656 323.703125 521.460938 323.703125 C 529.074219 323.703125 535.246094 317.53125 535.246094 309.917969 C 535.246094 302.304688 529.074219 296.132812 521.460938 296.132812 Z M 521.460938 296.132812 " clip-rule="nonzero"/></clipPath></defs><g clip-path="url(#502d9edbca)"><g clip-path="url(#ea5b7c90ba)"><path fill="#dce6fd" d="M 102.59375 81 L 174.074219 81 L 174.074219 152.480469 L 102.59375 152.480469 Z M 102.59375 81 " fill-opacity="1" fill-rule="nonzero"/></g></g><g clip-path="url(#5ac15a6b60)"><g clip-path="url(#9a4d722c5b)"><path fill="#c2d5fb" d="M 1387.007812 671.8125 L 1458.488281 671.8125 L 1458.488281 743.292969 L 1387.007812 743.292969 Z M 1387.007812 671.8125 " fill-opacity="1" fill-rule="nonzero"/></g></g><g clip-path="url(#c9d295456c)"><g clip-path="url(#0d1fe03cf5)"><path fill="#9bbdf9" d="M 1323.699219 280.011719 L 1383.511719 280.011719 L 1383.511719 339.824219 L 1323.699219 339.824219 Z M 1323.699219 280.011719 " fill-opacity="1" fill-rule="nonzero"/></g></g><g clip-path="url(#f64ad12c96)"><g clip-path="url(#2f09776c5d)"><path fill="#dce6fd" d="M 37.75 658.023438 L 92.894531 658.023438 L 92.894531 713.171875 L 37.75 713.171875 Z M 37.75 658.023438 " fill-opacity="1" fill-rule="nonzero"/></g></g><g clip-path="url(#2bd7b0db2e)"><g clip-path="url(#98c178ba14)"><path fill="#dce6fd" d="M 138.335938 658.023438 L 165.910156 658.023438 L 165.910156 685.597656 L 138.335938 685.597656 Z M 138.335938 658.023438 " fill-opacity="1" fill-rule="nonzero"/></g></g><g clip-path="url(#d195c53a44)"><g clip-path="url(#842d7b50df)"><path fill="#c2d5fb" d="M 116.164062 729 L 215.652344 729 L 215.652344 828.488281 L 116.164062 828.488281 Z M 116.164062 729 " fill-opacity="1" fill-rule="nonzero"/></g></g><g clip-path="url(#6b94c43d10)"><g clip-path="url(#d9687a9738)"><path fill="#dce6fd" d="M 1328.363281 582.222656 L 1383.511719 582.222656 L 1383.511719 637.367188 L 1328.363281 637.367188 Z M 1328.363281 582.222656 " fill-opacity="1" fill-rule="nonzero"/></g></g><g clip-path="url(#1f42901a02)"><g clip-path="url(#1a8b579847)"><path fill="#dce6fd" d="M 899.195312 476.042969 L 954.339844 476.042969 L 954.339844 531.1875 L 899.195312 531.1875 Z M 899.195312 476.042969 " fill-opacity="1" fill-rule="nonzero"/></g></g><g clip-path="url(#89b6dea8d1)"><g clip-path="url(#6f752c50bc)"><path fill="#dce6fd" d="M 1015.597656 152.480469 L 1070.746094 152.480469 L 1070.746094 207.628906 L 1015.597656 207.628906 Z M 1015.597656 152.480469 " fill-opacity="1" fill-rule="nonzero"/></g></g><g clip-path="url(#538522f57c)"><g clip-path="url(#69f65c2b11)"><path fill="#dce6fd" d="M 507.675781 296.132812 L 535.246094 296.132812 L 535.246094 323.703125 L 507.675781 323.703125 Z M 507.675781 296.132812 " fill-opacity="1" fill-rule="nonzero"/></g></g></svg>