<svg width="261" height="112" viewBox="0 0 261 112" fill="none" xmlns="http://www.w3.org/2000/svg">
<line y1="-0.2" x2="240.003" y2="-0.2" transform="matrix(1 0 0.0021756 0.999998 20.4629 96.7129)" stroke="black" stroke-opacity="0.2" stroke-width="0.4"/>
<line y1="-0.2" x2="240.003" y2="-0.2" transform="matrix(1 0 0.0021756 0.999998 20.4629 66.6445)" stroke="black" stroke-opacity="0.2" stroke-width="0.4"/>
<line y1="-0.2" x2="240.003" y2="-0.2" transform="matrix(1 0 0.0021756 0.999998 20.4629 36.5781)" stroke="black" stroke-opacity="0.2" stroke-width="0.4"/>
<line y1="-0.2" x2="240.003" y2="-0.2" transform="matrix(1 0 0.0021756 0.999998 19.4648 6.50977)" stroke="black" stroke-opacity="0.2" stroke-width="0.4"/>
<path d="M251.35 62.8484C245.817 56.7404 246.067 64.2975 240.836 62.8099C236.717 61.6386 233.134 57.8771 227.861 56.7404C217.951 72.7386 209.696 54.4201 205.044 47.2131C200.403 42.0603 193.655 75.4766 185.353 75.4766C142.41 50.7055 126.71 59.4393 120.261 74.3008C113.812 89.1622 109.989 56.0399 104.127 53.271C98.2661 50.5021 97.8745 66.7009 84.6924 64.5662C73.8141 62.8047 70.9686 56.7404 60.3089 56.0107C49.6493 55.281 44.719 78.1156 33.4647 76.2095" stroke="#A2BCF4" stroke-width="2.50462" stroke-linecap="round" stroke-linejoin="round"/>
<path d="M10.2507 98.9453V99.6016H6.9148V99.0376L8.53492 97.2705C8.71266 97.07 8.85279 96.8968 8.95533 96.751C9.05787 96.6051 9.12965 96.4741 9.17066 96.3579C9.21396 96.2394 9.23561 96.1243 9.23561 96.0127C9.23561 95.8555 9.20598 95.7176 9.14674 95.5991C9.08977 95.4784 9.00546 95.3838 8.89381 95.3154C8.78215 95.2448 8.64658 95.2095 8.48707 95.2095C8.3025 95.2095 8.14755 95.2493 8.02223 95.3291C7.8969 95.4089 7.80234 95.5194 7.73853 95.6606C7.67473 95.7996 7.64283 95.9591 7.64283 96.1392H6.8191C6.8191 95.8498 6.88518 95.5854 7.01734 95.3462C7.1495 95.1047 7.34091 94.9132 7.59156 94.772C7.84221 94.6284 8.14413 94.5566 8.49732 94.5566C8.83001 94.5566 9.11256 94.6125 9.34498 94.7241C9.5774 94.8358 9.754 94.9941 9.87477 95.1992C9.99781 95.4043 10.0593 95.647 10.0593 95.9272C10.0593 96.0822 10.0343 96.236 9.98414 96.3887C9.93401 96.5413 9.86223 96.694 9.76881 96.8467C9.67766 96.9971 9.56943 97.1486 9.4441 97.3013C9.31878 97.4517 9.18092 97.6043 9.03053 97.7593L7.95387 98.9453H10.2507ZM14.032 96.6963V97.5098C14.032 97.8994 13.9932 98.2321 13.9158 98.5078C13.8406 98.7812 13.7312 99.0034 13.5876 99.1743C13.4441 99.3452 13.272 99.4705 13.0715 99.5503C12.8733 99.63 12.6511 99.6699 12.405 99.6699C12.2091 99.6699 12.0268 99.6449 11.8581 99.5947C11.6918 99.5446 11.5414 99.466 11.407 99.3589C11.2725 99.2518 11.1575 99.1139 11.0618 98.9453C10.9683 98.7744 10.8954 98.5705 10.843 98.3335C10.7929 98.0965 10.7678 97.8219 10.7678 97.5098V96.6963C10.7678 96.3044 10.8065 95.974 10.884 95.7051C10.9615 95.4339 11.072 95.214 11.2156 95.0454C11.3591 94.8745 11.53 94.7503 11.7283 94.6729C11.9288 94.5954 12.1521 94.5566 12.3982 94.5566C12.5964 94.5566 12.7787 94.5817 12.9451 94.6318C13.1137 94.6797 13.2641 94.756 13.3962 94.8608C13.5307 94.9657 13.6446 95.1024 13.738 95.271C13.8337 95.4373 13.9066 95.639 13.9568 95.876C14.0069 96.1107 14.032 96.3841 14.032 96.6963ZM13.2082 97.626V96.5732C13.2082 96.375 13.1968 96.2007 13.1741 96.0503C13.1513 95.8976 13.1171 95.7689 13.0715 95.6641C13.0282 95.557 12.9735 95.4704 12.9075 95.4043C12.8414 95.3359 12.7662 95.2869 12.6819 95.2573C12.5976 95.2254 12.503 95.2095 12.3982 95.2095C12.2706 95.2095 12.1566 95.2345 12.0564 95.2847C11.9561 95.3325 11.8718 95.41 11.8035 95.5171C11.7351 95.6242 11.6827 95.7655 11.6462 95.9409C11.6121 96.1141 11.595 96.3249 11.595 96.5732V97.626C11.595 97.8265 11.6064 98.0031 11.6291 98.1558C11.6519 98.3084 11.6861 98.4395 11.7317 98.5488C11.7773 98.6559 11.8319 98.7448 11.8957 98.8154C11.9618 98.8838 12.037 98.9339 12.1213 98.9658C12.2079 98.9977 12.3025 99.0137 12.405 99.0137C12.5349 99.0137 12.65 98.9886 12.7502 98.9385C12.8505 98.8883 12.9348 98.8086 13.0032 98.6992C13.0715 98.5876 13.1228 98.4429 13.157 98.2651C13.1912 98.0874 13.2082 97.8743 13.2082 97.626Z" fill="black"/>
<path d="M41.7661 108.103V108.916C41.7661 109.306 41.7274 109.638 41.6499 109.914C41.5747 110.188 41.4654 110.41 41.3218 110.581C41.1782 110.751 41.0062 110.877 40.8057 110.957C40.6074 111.036 40.3853 111.076 40.1392 111.076C39.9432 111.076 39.7609 111.051 39.5923 111.001C39.426 110.951 39.2756 110.872 39.1411 110.765C39.0067 110.658 38.8916 110.52 38.7959 110.352C38.7025 110.181 38.6296 109.977 38.5772 109.74C38.527 109.503 38.502 109.228 38.502 108.916V108.103C38.502 107.711 38.5407 107.38 38.6182 107.111C38.6957 106.84 38.8062 106.62 38.9497 106.452C39.0933 106.281 39.2642 106.157 39.4624 106.079C39.6629 106.002 39.8862 105.963 40.1323 105.963C40.3306 105.963 40.5129 105.988 40.6792 106.038C40.8478 106.086 40.9982 106.162 41.1304 106.267C41.2648 106.372 41.3788 106.509 41.4722 106.677C41.5679 106.844 41.6408 107.045 41.6909 107.282C41.7411 107.517 41.7661 107.79 41.7661 108.103ZM40.9424 109.032V107.979C40.9424 107.781 40.931 107.607 40.9082 107.457C40.8854 107.304 40.8513 107.175 40.8057 107.07C40.7624 106.963 40.7077 106.877 40.6416 106.811C40.5755 106.742 40.5003 106.693 40.416 106.664C40.3317 106.632 40.2372 106.616 40.1323 106.616C40.0047 106.616 39.8908 106.641 39.7905 106.691C39.6903 106.739 39.606 106.816 39.5376 106.923C39.4693 107.03 39.4168 107.172 39.3804 107.347C39.3462 107.52 39.3291 107.731 39.3291 107.979V109.032C39.3291 109.233 39.3405 109.409 39.3633 109.562C39.3861 109.715 39.4203 109.846 39.4658 109.955C39.5114 110.062 39.5661 110.151 39.6299 110.222C39.696 110.29 39.7712 110.34 39.8555 110.372C39.9421 110.404 40.0366 110.42 40.1392 110.42C40.2691 110.42 40.3841 110.395 40.4844 110.345C40.5847 110.295 40.669 110.215 40.7373 110.105C40.8057 109.994 40.857 109.849 40.8911 109.671C40.9253 109.494 40.9424 109.281 40.9424 109.032ZM45.7012 106.031V106.482L43.7119 111.008H42.8438L44.8296 106.688H42.2524V106.031H45.7012ZM47.1308 105.758V111.008H46.3105V105.758H47.1308ZM46.9873 109.022L46.7207 109.019C46.723 108.763 46.7583 108.528 46.8266 108.311C46.8973 108.095 46.9953 107.907 47.1206 107.747C47.2482 107.585 47.4009 107.461 47.5786 107.375C47.7563 107.286 47.9534 107.241 48.1699 107.241C48.3522 107.241 48.5163 107.266 48.6621 107.316C48.8102 107.367 48.9378 107.447 49.0449 107.559C49.152 107.668 49.2329 107.812 49.2876 107.99C49.3445 108.165 49.373 108.379 49.373 108.632V111.008H48.5459V108.625C48.5459 108.448 48.5197 108.306 48.4673 108.202C48.4171 108.097 48.3431 108.022 48.2451 107.976C48.1471 107.928 48.0275 107.904 47.8862 107.904C47.7381 107.904 47.6071 107.934 47.4931 107.993C47.3815 108.052 47.2881 108.133 47.2129 108.236C47.1377 108.338 47.0807 108.457 47.042 108.591C47.0055 108.726 46.9873 108.869 46.9873 109.022Z" fill="black"/>
<path d="M88.2715 106.014V111.008H87.4478V106.992L86.2276 107.405V106.725L88.1724 106.014H88.2715ZM92.145 106.014V111.008H91.3213V106.992L90.1011 107.405V106.725L92.0459 106.014H92.145ZM94.6308 105.758V111.008H93.8105V105.758H94.6308ZM94.4873 109.022L94.2207 109.019C94.223 108.763 94.2583 108.528 94.3266 108.311C94.3973 108.095 94.4953 107.907 94.6206 107.747C94.7482 107.585 94.9009 107.461 95.0786 107.375C95.2563 107.286 95.4534 107.241 95.6699 107.241C95.8522 107.241 96.0163 107.266 96.1621 107.316C96.3102 107.367 96.4378 107.447 96.5449 107.559C96.652 107.668 96.7329 107.812 96.7876 107.99C96.8445 108.165 96.873 108.379 96.873 108.632V111.008H96.0459V108.625C96.0459 108.448 96.0197 108.306 95.9673 108.202C95.9171 108.097 95.8431 108.022 95.7451 107.976C95.6471 107.928 95.5275 107.904 95.3862 107.904C95.2381 107.904 95.1071 107.934 94.9931 107.993C94.8815 108.052 94.7881 108.133 94.7129 108.236C94.6377 108.338 94.5807 108.457 94.542 108.591C94.5055 108.726 94.4873 108.869 94.4873 109.022Z" fill="black"/>
<path d="M136.272 106.014V111.008H135.448V106.992L134.228 107.405V106.725L136.172 106.014H136.272ZM138.761 108.694L138.104 108.533L138.375 106.031H141.058V106.729H139.058L138.921 107.949C138.999 107.903 139.106 107.859 139.243 107.815C139.379 107.77 139.535 107.747 139.711 107.747C139.946 107.747 140.155 107.786 140.34 107.863C140.527 107.938 140.685 108.049 140.815 108.195C140.945 108.338 141.044 108.514 141.112 108.721C141.181 108.926 141.215 109.158 141.215 109.415C141.215 109.645 141.181 109.861 141.112 110.061C141.046 110.262 140.946 110.438 140.812 110.591C140.677 110.743 140.507 110.863 140.302 110.95C140.099 111.034 139.859 111.076 139.581 111.076C139.374 111.076 139.174 111.047 138.983 110.987C138.794 110.926 138.624 110.836 138.474 110.717C138.323 110.597 138.202 110.448 138.111 110.273C138.02 110.095 137.968 109.891 137.954 109.661H138.761C138.781 109.823 138.826 109.961 138.894 110.075C138.965 110.186 139.058 110.272 139.174 110.331C139.291 110.39 139.425 110.42 139.578 110.42C139.717 110.42 139.836 110.396 139.937 110.348C140.037 110.298 140.12 110.227 140.186 110.136C140.254 110.043 140.305 109.933 140.336 109.808C140.371 109.683 140.388 109.544 140.388 109.391C140.388 109.245 140.368 109.112 140.33 108.991C140.293 108.87 140.237 108.766 140.162 108.677C140.089 108.588 139.997 108.52 139.885 108.472C139.774 108.422 139.645 108.396 139.499 108.396C139.303 108.396 139.153 108.425 139.048 108.482C138.945 108.539 138.85 108.61 138.761 108.694ZM142.631 105.758V111.008H141.811V105.758H142.631ZM142.487 109.022L142.221 109.019C142.223 108.763 142.258 108.528 142.327 108.311C142.397 108.095 142.495 107.907 142.621 107.747C142.748 107.585 142.901 107.461 143.079 107.375C143.256 107.286 143.453 107.241 143.67 107.241C143.852 107.241 144.016 107.266 144.162 107.316C144.31 107.367 144.438 107.447 144.545 107.559C144.652 107.668 144.733 107.812 144.788 107.99C144.845 108.165 144.873 108.379 144.873 108.632V111.008H144.046V108.625C144.046 108.448 144.02 108.306 143.967 108.202C143.917 108.097 143.843 108.022 143.745 107.976C143.647 107.928 143.527 107.904 143.386 107.904C143.238 107.904 143.107 107.934 142.993 107.993C142.881 108.052 142.788 108.133 142.713 108.236C142.638 108.338 142.581 108.457 142.542 108.591C142.506 108.726 142.487 108.869 142.487 109.022Z" fill="black"/>
<path d="M184.272 106.014V111.008H183.448V106.992L182.228 107.405V106.725L184.172 106.014H184.272ZM186.559 110.358H186.627C186.942 110.358 187.204 110.317 187.414 110.235C187.625 110.151 187.794 110.035 187.919 109.887C188.045 109.739 188.135 109.564 188.189 109.364C188.244 109.163 188.271 108.946 188.271 108.711V107.853C188.271 107.65 188.25 107.472 188.207 107.32C188.166 107.165 188.106 107.036 188.029 106.934C187.954 106.829 187.866 106.75 187.766 106.698C187.668 106.645 187.562 106.619 187.448 106.619C187.322 106.619 187.21 106.648 187.109 106.705C187.011 106.759 186.928 106.836 186.86 106.934C186.794 107.029 186.743 107.142 186.706 107.272C186.672 107.4 186.655 107.536 186.655 107.682C186.655 107.819 186.671 107.951 186.703 108.079C186.737 108.204 186.787 108.316 186.853 108.414C186.919 108.512 187.002 108.589 187.103 108.646C187.203 108.703 187.32 108.731 187.455 108.731C187.582 108.731 187.7 108.708 187.807 108.66C187.914 108.61 188.007 108.542 188.087 108.458C188.167 108.374 188.229 108.279 188.275 108.174C188.32 108.069 188.346 107.962 188.35 107.853L188.665 107.949C188.665 108.122 188.628 108.293 188.555 108.461C188.485 108.628 188.385 108.78 188.258 108.919C188.132 109.056 187.986 109.166 187.817 109.248C187.651 109.33 187.469 109.371 187.273 109.371C187.036 109.371 186.827 109.326 186.645 109.237C186.465 109.146 186.314 109.023 186.193 108.868C186.075 108.713 185.986 108.535 185.927 108.335C185.868 108.134 185.838 107.924 185.838 107.703C185.838 107.463 185.874 107.239 185.947 107.029C186.02 106.82 186.126 106.635 186.265 106.476C186.404 106.314 186.573 106.188 186.771 106.1C186.972 106.008 187.198 105.963 187.451 105.963C187.72 105.963 187.956 106.015 188.159 106.12C188.361 106.225 188.532 106.37 188.671 106.554C188.81 106.739 188.915 106.953 188.986 107.197C189.056 107.441 189.092 107.703 189.092 107.983V108.273C189.092 108.567 189.066 108.851 189.013 109.125C188.961 109.396 188.875 109.647 188.757 109.88C188.641 110.11 188.487 110.313 188.295 110.488C188.106 110.661 187.874 110.797 187.598 110.895C187.325 110.991 187.003 111.039 186.634 111.039H186.559V110.358ZM190.631 105.758V111.008H189.811V105.758H190.631ZM190.487 109.022L190.221 109.019C190.223 108.763 190.258 108.528 190.327 108.311C190.397 108.095 190.495 107.907 190.621 107.747C190.748 107.585 190.901 107.461 191.079 107.375C191.256 107.286 191.453 107.241 191.67 107.241C191.852 107.241 192.016 107.266 192.162 107.316C192.31 107.367 192.438 107.447 192.545 107.559C192.652 107.668 192.733 107.812 192.788 107.99C192.845 108.165 192.873 108.379 192.873 108.632V111.008H192.046V108.625C192.046 108.448 192.02 108.306 191.967 108.202C191.917 108.097 191.843 108.022 191.745 107.976C191.647 107.928 191.527 107.904 191.386 107.904C191.238 107.904 191.107 107.934 190.993 107.993C190.881 108.052 190.788 108.133 190.713 108.236C190.638 108.338 190.581 108.457 190.542 108.591C190.506 108.726 190.487 108.869 190.487 109.022Z" fill="black"/>
<path d="M232.858 110.352V111.008H229.522V110.444L231.143 108.677C231.32 108.476 231.46 108.303 231.563 108.157C231.666 108.011 231.737 107.88 231.778 107.764C231.822 107.646 231.843 107.531 231.843 107.419C231.843 107.262 231.814 107.124 231.754 107.005C231.697 106.885 231.613 106.79 231.501 106.722C231.39 106.651 231.254 106.616 231.095 106.616C230.91 106.616 230.755 106.656 230.63 106.735C230.505 106.815 230.41 106.926 230.346 107.067C230.282 107.206 230.251 107.365 230.251 107.545H229.427C229.427 107.256 229.493 106.992 229.625 106.752C229.757 106.511 229.949 106.319 230.199 106.178C230.45 106.035 230.752 105.963 231.105 105.963C231.438 105.963 231.72 106.019 231.953 106.13C232.185 106.242 232.362 106.4 232.482 106.605C232.605 106.811 232.667 107.053 232.667 107.333C232.667 107.488 232.642 107.642 232.592 107.795C232.542 107.948 232.47 108.1 232.376 108.253C232.285 108.403 232.177 108.555 232.052 108.708C231.926 108.858 231.789 109.011 231.638 109.166L230.562 110.352H232.858ZM234.363 108.147H234.855C235.047 108.147 235.205 108.114 235.331 108.048C235.458 107.982 235.553 107.891 235.614 107.774C235.676 107.658 235.707 107.525 235.707 107.375C235.707 107.217 235.678 107.083 235.621 106.971C235.566 106.857 235.482 106.77 235.368 106.708C235.257 106.646 235.114 106.616 234.941 106.616C234.795 106.616 234.663 106.645 234.544 106.705C234.428 106.762 234.336 106.844 234.268 106.951C234.199 107.056 234.165 107.181 234.165 107.327H233.338C233.338 107.062 233.407 106.828 233.546 106.623C233.685 106.417 233.875 106.257 234.114 106.141C234.355 106.022 234.626 105.963 234.927 105.963C235.249 105.963 235.529 106.016 235.768 106.124C236.01 106.228 236.198 106.386 236.332 106.595C236.466 106.805 236.534 107.065 236.534 107.375C236.534 107.516 236.501 107.659 236.435 107.805C236.368 107.951 236.271 108.084 236.141 108.205C236.011 108.324 235.849 108.42 235.655 108.496C235.462 108.569 235.237 108.605 234.982 108.605H234.363V108.147ZM234.363 108.79V108.338H234.982C235.274 108.338 235.522 108.373 235.727 108.441C235.934 108.509 236.103 108.604 236.233 108.725C236.363 108.843 236.457 108.979 236.517 109.131C236.578 109.284 236.609 109.446 236.609 109.617C236.609 109.849 236.567 110.056 236.482 110.239C236.4 110.419 236.283 110.571 236.13 110.697C235.978 110.822 235.799 110.917 235.594 110.98C235.391 111.044 235.17 111.076 234.931 111.076C234.716 111.076 234.511 111.047 234.315 110.987C234.119 110.928 233.944 110.84 233.789 110.724C233.634 110.606 233.511 110.459 233.42 110.283C233.331 110.105 233.287 109.9 233.287 109.668H234.11C234.11 109.816 234.145 109.947 234.213 110.061C234.284 110.173 234.382 110.26 234.507 110.324C234.634 110.388 234.78 110.42 234.944 110.42C235.118 110.42 235.267 110.389 235.392 110.328C235.517 110.266 235.613 110.175 235.679 110.054C235.748 109.933 235.782 109.788 235.782 109.617C235.782 109.423 235.744 109.266 235.669 109.145C235.594 109.024 235.487 108.935 235.348 108.878C235.209 108.819 235.045 108.79 234.855 108.79H234.363ZM238.131 105.758V111.008H237.311V105.758H238.131ZM237.987 109.022L237.721 109.019C237.723 108.763 237.758 108.528 237.827 108.311C237.897 108.095 237.995 107.907 238.121 107.747C238.248 107.585 238.401 107.461 238.579 107.375C238.756 107.286 238.953 107.241 239.17 107.241C239.352 107.241 239.516 107.266 239.662 107.316C239.81 107.367 239.938 107.447 240.045 107.559C240.152 107.668 240.233 107.812 240.288 107.99C240.345 108.165 240.373 108.379 240.373 108.632V111.008H239.546V108.625C239.546 108.448 239.52 108.306 239.467 108.202C239.417 108.097 239.343 108.022 239.245 107.976C239.147 107.928 239.027 107.904 238.886 107.904C238.738 107.904 238.607 107.934 238.493 107.993C238.381 108.052 238.288 108.133 238.213 108.236C238.138 108.338 238.081 108.457 238.042 108.591C238.006 108.726 237.987 108.869 237.987 109.022Z" fill="black"/>
<path d="M7.77955 66.1841L7.1233 66.0234L7.39332 63.5215H10.0764V64.2188H8.07691L7.9402 65.439C8.01767 65.3934 8.12477 65.349 8.26148 65.3057C8.3982 65.2601 8.55429 65.2373 8.72975 65.2373C8.96445 65.2373 9.17408 65.276 9.35865 65.3535C9.5455 65.4287 9.70387 65.5392 9.83375 65.6851C9.96363 65.8286 10.0628 66.0041 10.1311 66.2114C10.1995 66.4165 10.2337 66.6478 10.2337 66.9053C10.2337 67.1354 10.1995 67.3507 10.1311 67.5513C10.065 67.7518 9.96477 67.9284 9.83033 68.0811C9.69589 68.2337 9.52613 68.3534 9.32105 68.4399C9.11825 68.5243 8.87786 68.5664 8.59986 68.5664C8.39251 68.5664 8.19312 68.5368 8.00172 68.4775C7.81259 68.416 7.64283 68.326 7.49244 68.2075C7.34205 68.0868 7.22128 67.9386 7.13014 67.7632C7.03899 67.5854 6.98658 67.3815 6.97291 67.1514H7.77955C7.80006 67.3132 7.84449 67.451 7.91285 67.5649C7.98349 67.6766 8.07691 67.762 8.19312 67.8213C8.30934 67.8805 8.44378 67.9102 8.59645 67.9102C8.73544 67.9102 8.85507 67.8862 8.95533 67.8384C9.05559 67.7882 9.13876 67.7176 9.20484 67.6265C9.2732 67.533 9.32333 67.4237 9.35523 67.2983C9.38941 67.173 9.4065 67.034 9.4065 66.8813C9.4065 66.7355 9.38714 66.6022 9.3484 66.4814C9.31194 66.3607 9.25611 66.2559 9.18092 66.167C9.108 66.0781 9.01572 66.0098 8.90406 65.9619C8.79241 65.9118 8.66367 65.8867 8.51783 65.8867C8.32187 65.8867 8.17148 65.9152 8.06666 65.9722C7.96412 66.0291 7.86842 66.0998 7.77955 66.1841ZM14.032 65.5928V66.4062C14.032 66.7959 13.9932 67.1286 13.9158 67.4043C13.8406 67.6777 13.7312 67.8999 13.5876 68.0708C13.4441 68.2417 13.272 68.367 13.0715 68.4468C12.8733 68.5265 12.6511 68.5664 12.405 68.5664C12.2091 68.5664 12.0268 68.5413 11.8581 68.4912C11.6918 68.4411 11.5414 68.3625 11.407 68.2554C11.2725 68.1483 11.1575 68.0104 11.0618 67.8418C10.9683 67.6709 10.8954 67.467 10.843 67.23C10.7929 66.993 10.7678 66.7184 10.7678 66.4062V65.5928C10.7678 65.2008 10.8065 64.8704 10.884 64.6016C10.9615 64.3304 11.072 64.1105 11.2156 63.9419C11.3591 63.771 11.53 63.6468 11.7283 63.5693C11.9288 63.4919 12.1521 63.4531 12.3982 63.4531C12.5964 63.4531 12.7787 63.4782 12.9451 63.5283C13.1137 63.5762 13.2641 63.6525 13.3962 63.7573C13.5307 63.8621 13.6446 63.9989 13.738 64.1675C13.8337 64.3338 13.9066 64.5355 13.9568 64.7725C14.0069 65.0072 14.032 65.2806 14.032 65.5928ZM13.2082 66.5225V65.4697C13.2082 65.2715 13.1968 65.0972 13.1741 64.9468C13.1513 64.7941 13.1171 64.6654 13.0715 64.5605C13.0282 64.4535 12.9735 64.3669 12.9075 64.3008C12.8414 64.2324 12.7662 64.1834 12.6819 64.1538C12.5976 64.1219 12.503 64.106 12.3982 64.106C12.2706 64.106 12.1566 64.131 12.0564 64.1812C11.9561 64.229 11.8718 64.3065 11.8035 64.4136C11.7351 64.5207 11.6827 64.6619 11.6462 64.8374C11.6121 65.0106 11.595 65.2214 11.595 65.4697V66.5225C11.595 66.723 11.6064 66.8996 11.6291 67.0522C11.6519 67.2049 11.6861 67.3359 11.7317 67.4453C11.7773 67.5524 11.8319 67.6413 11.8957 67.7119C11.9618 67.7803 12.037 67.8304 12.1213 67.8623C12.2079 67.8942 12.3025 67.9102 12.405 67.9102C12.5349 67.9102 12.65 67.8851 12.7502 67.835C12.8505 67.7848 12.9348 67.7051 13.0032 67.5957C13.0715 67.484 13.1228 67.3394 13.157 67.1616C13.1912 66.9839 13.2082 66.7708 13.2082 66.5225Z" fill="black"/>
<path d="M10.1687 36.0356C10.1687 36.3455 10.0969 36.6064 9.95338 36.8184C9.80982 37.0303 9.61386 37.1909 9.36549 37.3003C9.11939 37.4074 8.8414 37.4609 8.5315 37.4609C8.22161 37.4609 7.94247 37.4074 7.6941 37.3003C7.44573 37.1909 7.24977 37.0303 7.10621 36.8184C6.96266 36.6064 6.89088 36.3455 6.89088 36.0356C6.89088 35.8306 6.93075 35.6449 7.01051 35.4785C7.09026 35.3099 7.20305 35.1652 7.34889 35.0444C7.497 34.9214 7.67018 34.8268 7.86842 34.7607C8.06894 34.6947 8.28769 34.6616 8.52467 34.6616C8.83912 34.6616 9.12053 34.7197 9.36891 34.8359C9.61728 34.9521 9.8121 35.1128 9.95338 35.3179C10.0969 35.5229 10.1687 35.7622 10.1687 36.0356ZM9.34156 35.9946C9.34156 35.8283 9.30738 35.6825 9.23902 35.5571C9.17066 35.4318 9.07496 35.335 8.95191 35.2666C8.82887 35.1982 8.68645 35.1641 8.52467 35.1641C8.36061 35.1641 8.21819 35.1982 8.09742 35.2666C7.97665 35.335 7.88209 35.4318 7.81373 35.5571C7.74765 35.6825 7.71461 35.8283 7.71461 35.9946C7.71461 36.1632 7.74765 36.3091 7.81373 36.4321C7.87981 36.5529 7.97437 36.6452 8.09742 36.709C8.22047 36.7728 8.36516 36.8047 8.5315 36.8047C8.69784 36.8047 8.8414 36.7728 8.96217 36.709C9.08294 36.6452 9.17636 36.5529 9.24244 36.4321C9.30852 36.3091 9.34156 36.1632 9.34156 35.9946ZM10.0559 33.7251C10.0559 33.9735 9.98984 34.1945 9.85768 34.3882C9.72779 34.5819 9.54778 34.7345 9.31764 34.8462C9.08749 34.9556 8.82545 35.0103 8.5315 35.0103C8.23528 35.0103 7.97096 34.9556 7.73853 34.8462C7.50839 34.7345 7.32724 34.5819 7.19508 34.3882C7.0652 34.1945 7.00025 33.9735 7.00025 33.7251C7.00025 33.4289 7.0652 33.1794 7.19508 32.9766C7.32724 32.7715 7.50839 32.6154 7.73853 32.5083C7.96868 32.4012 8.23186 32.3477 8.52809 32.3477C8.82431 32.3477 9.08749 32.4012 9.31764 32.5083C9.54778 32.6154 9.72779 32.7715 9.85768 32.9766C9.98984 33.1794 10.0559 33.4289 10.0559 33.7251ZM9.23219 33.7524C9.23219 33.6043 9.20256 33.4744 9.14332 33.3628C9.08635 33.2489 9.00546 33.16 8.90064 33.0962C8.79583 33.0324 8.67164 33.0005 8.52809 33.0005C8.38453 33.0005 8.26034 33.0312 8.15553 33.0928C8.05071 33.1543 7.96982 33.2409 7.91285 33.3525C7.85589 33.4642 7.8274 33.5975 7.8274 33.7524C7.8274 33.9051 7.85589 34.0384 7.91285 34.1523C7.96982 34.264 8.05071 34.3517 8.15553 34.4155C8.26262 34.4793 8.38795 34.5112 8.5315 34.5112C8.67506 34.5112 8.79924 34.4793 8.90406 34.4155C9.00888 34.3517 9.08977 34.264 9.14674 34.1523C9.2037 34.0384 9.23219 33.9051 9.23219 33.7524ZM14.032 34.4873V35.3008C14.032 35.6904 13.9932 36.0231 13.9158 36.2988C13.8406 36.5723 13.7312 36.7944 13.5876 36.9653C13.4441 37.1362 13.272 37.2616 13.0715 37.3413C12.8733 37.4211 12.6511 37.4609 12.405 37.4609C12.2091 37.4609 12.0268 37.4359 11.8581 37.3857C11.6918 37.3356 11.5414 37.257 11.407 37.1499C11.2725 37.0428 11.1575 36.9049 11.0618 36.7363C10.9683 36.5654 10.8954 36.3615 10.843 36.1245C10.7929 35.8875 10.7678 35.613 10.7678 35.3008V34.4873C10.7678 34.0954 10.8065 33.765 10.884 33.4961C10.9615 33.2249 11.072 33.005 11.2156 32.8364C11.3591 32.6655 11.53 32.5413 11.7283 32.4639C11.9288 32.3864 12.1521 32.3477 12.3982 32.3477C12.5964 32.3477 12.7787 32.3727 12.9451 32.4229C13.1137 32.4707 13.2641 32.547 13.3962 32.6519C13.5307 32.7567 13.6446 32.8934 13.738 33.062C13.8337 33.2284 13.9066 33.43 13.9568 33.667C14.0069 33.9017 14.032 34.1751 14.032 34.4873ZM13.2082 35.417V34.3643C13.2082 34.166 13.1968 33.9917 13.1741 33.8413C13.1513 33.6886 13.1171 33.5599 13.0715 33.4551C13.0282 33.348 12.9735 33.2614 12.9075 33.1953C12.8414 33.127 12.7662 33.078 12.6819 33.0483C12.5976 33.0164 12.503 33.0005 12.3982 33.0005C12.2706 33.0005 12.1566 33.0256 12.0564 33.0757C11.9561 33.1235 11.8718 33.201 11.8035 33.3081C11.7351 33.4152 11.6827 33.5565 11.6462 33.7319C11.6121 33.9051 11.595 34.1159 11.595 34.3643V35.417C11.595 35.6175 11.6064 35.7941 11.6291 35.9468C11.6519 36.0994 11.6861 36.2305 11.7317 36.3398C11.7773 36.4469 11.8319 36.5358 11.8957 36.6064C11.9618 36.6748 12.037 36.7249 12.1213 36.7568C12.2079 36.7887 12.3025 36.8047 12.405 36.8047C12.5349 36.8047 12.65 36.7796 12.7502 36.7295C12.8505 36.6794 12.9348 36.5996 13.0032 36.4902C13.0715 36.3786 13.1228 36.2339 13.157 36.0562C13.1912 35.8784 13.2082 35.6654 13.2082 35.417Z" fill="black"/>
<path d="M7.22707 1.29541V6.28906H6.40334V2.27295L5.18313 2.68652V2.00635L7.12795 1.29541H7.22707ZM11.1006 1.29541V6.28906H10.2769V2.27295L9.05664 2.68652V2.00635L11.0015 1.29541H11.1006ZM15.9687 3.38379V4.19727C15.9687 4.58691 15.93 4.9196 15.8525 5.19531C15.7773 5.46875 15.6679 5.69092 15.5244 5.86182C15.3808 6.03271 15.2088 6.15804 15.0083 6.23779C14.81 6.31755 14.5879 6.35742 14.3418 6.35742C14.1458 6.35742 13.9635 6.33236 13.7949 6.28223C13.6286 6.2321 13.4782 6.15348 13.3437 6.04639C13.2093 5.93929 13.0942 5.80143 12.9985 5.63281C12.9051 5.46191 12.8322 5.25798 12.7798 5.021C12.7296 4.78402 12.7046 4.50944 12.7046 4.19727V3.38379C12.7046 2.99186 12.7433 2.66146 12.8208 2.39258C12.8983 2.12142 13.0088 1.90153 13.1523 1.73291C13.2959 1.56201 13.4668 1.43783 13.665 1.36035C13.8655 1.28288 14.0888 1.24414 14.3349 1.24414C14.5332 1.24414 14.7155 1.26921 14.8818 1.31934C15.0504 1.36719 15.2008 1.44352 15.333 1.54834C15.4674 1.65316 15.5814 1.78988 15.6748 1.9585C15.7705 2.12484 15.8434 2.3265 15.8935 2.56348C15.9437 2.79818 15.9687 3.07161 15.9687 3.38379ZM15.145 4.31348V3.26074C15.145 3.0625 15.1336 2.88818 15.1108 2.73779C15.088 2.58512 15.0539 2.45638 15.0083 2.35156C14.965 2.24447 14.9103 2.15788 14.8442 2.0918C14.7781 2.02344 14.7029 1.97445 14.6186 1.94482C14.5343 1.91292 14.4398 1.89697 14.3349 1.89697C14.2073 1.89697 14.0934 1.92204 13.9931 1.97217C13.8929 2.02002 13.8086 2.09749 13.7402 2.20459C13.6719 2.31169 13.6194 2.45296 13.583 2.62842C13.5488 2.8016 13.5317 3.01237 13.5317 3.26074V4.31348C13.5317 4.514 13.5431 4.69059 13.5659 4.84326C13.5887 4.99593 13.6229 5.12695 13.6684 5.23633C13.714 5.34342 13.7687 5.43229 13.8325 5.50293C13.8986 5.57129 13.9738 5.62142 14.0581 5.65332C14.1447 5.68522 14.2392 5.70117 14.3418 5.70117C14.4717 5.70117 14.5867 5.67611 14.687 5.62598C14.7873 5.57585 14.8716 5.49609 14.9399 5.38672C15.0083 5.27507 15.0596 5.13037 15.0937 4.95264C15.1279 4.7749 15.145 4.56185 15.145 4.31348Z" fill="black"/>
</svg>
