<svg xmlns="http://www.w3.org/2000/svg" xmlns:xlink="http://www.w3.org/1999/xlink" width="1080" zoomAndPan="magnify" viewBox="0 0 810 809.999993" height="1080" preserveAspectRatio="xMidYMid meet" version="1.0"><defs><clipPath id="809da8a978"><path d="M 242.914062 171 L 566.914062 171 L 566.914062 640 L 242.914062 640 Z M 242.914062 171 " clip-rule="nonzero"/></clipPath></defs><g clip-path="url(#809da8a978)"><path fill="#2a3ec9" d="M 270.964844 172.195312 C 268.261719 172.9375 265.195312 175.148438 263.550781 177.539062 C 262.363281 179.261719 253.074219 197.140625 252.761719 198.300781 C 252.085938 200.8125 253.164062 203.53125 255.90625 206.253906 C 259.3125 209.632812 258.558594 209.386719 286.316406 216.175781 C 299.535156 219.410156 327.335938 226.210938 348.09375 231.292969 C 368.855469 236.375 393.519531 242.414062 402.910156 244.710938 L 419.980469 248.886719 L 336.675781 249.007812 L 253.371094 249.125 L 251.574219 249.785156 C 246.242188 251.730469 243.152344 255.679688 242.972656 260.789062 C 242.894531 262.992188 269.722656 624.703125 270.210938 628.023438 C 270.996094 633.355469 274.777344 637.859375 279.679688 639.300781 C 281.496094 639.832031 495.878906 639.886719 497.875 639.355469 C 502.59375 638.09375 506.21875 634.101562 507.289062 628.984375 C 507.488281 628.035156 513.339844 550.96875 520.710938 452.195312 C 527.898438 355.886719 533.84375 277.027344 533.925781 276.945312 C 534.003906 276.867188 538.203125 277.824219 543.257812 279.074219 C 552.425781 281.335938 552.457031 281.34375 555.453125 281.335938 C 560.726562 281.320312 564.742188 279.457031 566.257812 276.320312 C 566.921875 274.953125 567.023438 252.945312 566.378906 250.222656 C 565.359375 245.890625 562.296875 242.378906 558.203125 240.847656 C 557.308594 240.511719 474.382812 220.089844 461.992188 217.152344 C 461.480469 217.03125 461.449219 216.898438 461.445312 214.921875 C 461.429688 206.410156 458.222656 198.46875 453.148438 194.363281 C 450.457031 192.1875 448.660156 191.503906 439.453125 189.160156 C 411.3125 181.996094 400.351562 179.316406 398.582031 179.160156 C 390.316406 178.441406 381.777344 184.175781 376.296875 194.132812 C 375.769531 195.089844 375.289062 195.875 375.226562 195.875 C 375.164062 195.875 362.542969 192.800781 347.179688 189.039062 C 269.5 170.027344 277.128906 171.832031 274.492188 171.855469 C 273.1875 171.867188 271.601562 172.019531 270.964844 172.195312 M 309.476562 267.148438 C 316.066406 268.902344 323.644531 276.964844 324.425781 283.050781 C 324.953125 287.1875 339.359375 612.488281 339.074219 613.867188 C 336.492188 626.304688 318.878906 626.285156 315.667969 613.839844 C 315.074219 611.53125 290.671875 282.789062 290.988281 281.367188 C 292.710938 273.695312 303.34375 265.515625 309.476562 267.148438 M 393.730469 269.066406 C 399.128906 270.433594 404.304688 274.207031 405.6875 277.78125 L 406.230469 279.179688 L 403.9375 446.988281 C 401.667969 613.449219 401.644531 614.8125 401.144531 616.363281 C 397.058594 629.054688 379.019531 627.027344 377.753906 613.738281 C 377.582031 611.9375 373.300781 302.230469 373.183594 283.320312 L 373.15625 278.808594 L 373.925781 277.242188 C 376.933594 271.140625 386.4375 267.214844 393.730469 269.066406 M 475.105469 271.746094 C 482.800781 273.332031 488.582031 278.375 488.449219 283.382812 C 488.320312 288.140625 464.074219 612.050781 463.738281 613.476562 C 462.390625 619.222656 457.523438 623.335938 452.074219 623.335938 C 446.453125 623.335938 441.125 618.992188 440.25 613.699219 C 440.003906 612.207031 454.777344 290.84375 455.410156 283.96875 C 456.121094 276.234375 466.28125 269.929688 475.105469 271.746094 " fill-opacity="1" fill-rule="evenodd"/></g></svg>