<svg xmlns="http://www.w3.org/2000/svg" xmlns:xlink="http://www.w3.org/1999/xlink" width="1080" zoomAndPan="magnify" viewBox="0 0 810 809.999993" height="1080" preserveAspectRatio="xMidYMid meet" version="1.0"><defs><clipPath id="d63fb17c78"><path d="M 150 146.632812 L 662 146.632812 L 662 663.382812 L 150 663.382812 Z M 150 146.632812 " clip-rule="nonzero"/></clipPath></defs><g clip-path="url(#d63fb17c78)"><path fill="#f1f4fd" d="M 264.40625 288.191406 C 264.410156 285.878906 264.46875 283.570312 264.585938 281.261719 C 264.699219 278.953125 264.871094 276.644531 265.101562 274.34375 C 265.332031 272.042969 265.613281 269.75 265.957031 267.464844 C 266.296875 265.175781 266.695312 262.898438 267.148438 260.632812 C 267.601562 258.363281 268.109375 256.109375 268.671875 253.867188 C 269.234375 251.625 269.851562 249.398438 270.523438 247.183594 C 271.199219 244.972656 271.925781 242.777344 272.703125 240.601562 C 273.484375 238.425781 274.316406 236.269531 275.203125 234.132812 C 276.089844 232 277.027344 229.886719 278.015625 227.796875 C 279.003906 225.707031 280.046875 223.640625 281.136719 221.601562 C 282.226562 219.5625 283.367188 217.554688 284.554688 215.570312 C 285.746094 213.585938 286.984375 211.632812 288.265625 209.710938 C 289.550781 207.789062 290.882812 205.902344 292.261719 204.042969 C 293.640625 202.1875 295.0625 200.363281 296.527344 198.578125 C 297.996094 196.789062 299.503906 195.039062 301.058594 193.328125 C 302.609375 191.613281 304.203125 189.9375 305.839844 188.304688 C 307.472656 186.667969 309.148438 185.074219 310.859375 183.523438 C 312.574219 181.96875 314.324219 180.457031 316.109375 178.992188 C 317.898438 177.523438 319.71875 176.101562 321.578125 174.722656 C 323.433594 173.347656 325.324219 172.015625 327.246094 170.730469 C 329.167969 169.445312 331.121094 168.207031 333.101562 167.015625 C 335.085938 165.828125 337.09375 164.6875 339.132812 163.597656 C 341.171875 162.503906 343.238281 161.464844 345.328125 160.476562 C 347.414062 159.484375 349.527344 158.546875 351.664062 157.660156 C 353.800781 156.773438 355.957031 155.941406 358.132812 155.160156 C 360.308594 154.382812 362.503906 153.652344 364.714844 152.980469 C 366.925781 152.308594 369.15625 151.691406 371.398438 151.125 C 373.640625 150.5625 375.894531 150.054688 378.160156 149.601562 C 380.429688 149.148438 382.707031 148.75 384.992188 148.410156 C 387.28125 148.066406 389.574219 147.78125 391.875 147.554688 C 394.175781 147.324219 396.480469 147.152344 398.789062 147.035156 C 401.097656 146.921875 403.410156 146.859375 405.722656 146.859375 C 592.503906 153.464844 592.871094 422.328125 406.199219 429.503906 C 403.882812 429.507812 401.566406 429.457031 399.253906 429.351562 C 396.9375 429.242188 394.628906 429.078125 392.320312 428.855469 C 390.015625 428.632812 387.714844 428.355469 385.421875 428.019531 C 383.128906 427.683594 380.847656 427.292969 378.574219 426.847656 C 376.300781 426.398438 374.039062 425.898438 371.789062 425.339844 C 369.542969 424.78125 367.308594 424.167969 365.089844 423.5 C 362.871094 422.832031 360.667969 422.109375 358.484375 421.335938 C 356.304688 420.558594 354.140625 419.730469 351.996094 418.847656 C 349.855469 417.964844 347.734375 417.03125 345.640625 416.042969 C 343.542969 415.058594 341.472656 414.019531 339.425781 412.933594 C 337.378906 411.84375 335.363281 410.707031 333.371094 409.519531 C 331.382812 408.332031 329.421875 407.09375 327.496094 405.8125 C 325.566406 404.527344 323.667969 403.199219 321.804688 401.820312 C 319.941406 400.445312 318.113281 399.023438 316.320312 397.554688 C 314.527344 396.089844 312.769531 394.578125 311.050781 393.027344 C 309.332031 391.472656 307.648438 389.878906 306.007812 388.242188 C 304.367188 386.609375 302.769531 384.933594 301.210938 383.21875 C 299.648438 381.503906 298.132812 379.753906 296.660156 377.964844 C 295.1875 376.175781 293.761719 374.351562 292.378906 372.492188 C 290.996094 370.632812 289.65625 368.742188 288.367188 366.816406 C 287.078125 364.894531 285.835938 362.9375 284.640625 360.953125 C 283.445312 358.964844 282.300781 356.953125 281.207031 354.910156 C 280.113281 352.867188 279.066406 350.800781 278.074219 348.707031 C 277.082031 346.613281 276.136719 344.5 275.25 342.359375 C 274.359375 340.21875 273.523438 338.058594 272.738281 335.878906 C 271.957031 333.699219 271.226562 331.5 270.550781 329.285156 C 269.875 327.066406 269.253906 324.835938 268.6875 322.589844 C 268.125 320.339844 267.613281 318.082031 267.160156 315.808594 C 266.703125 313.539062 266.304688 311.257812 265.960938 308.964844 C 265.621094 306.671875 265.332031 304.375 265.105469 302.070312 C 264.875 299.761719 264.703125 297.453125 264.585938 295.140625 C 264.46875 292.824219 264.410156 290.511719 264.40625 288.191406 Z M 548.753906 429.570312 C 547.816406 428.996094 546.84375 428.492188 545.835938 428.058594 C 544.828125 427.625 543.792969 427.265625 542.730469 426.980469 C 541.671875 426.695312 540.597656 426.484375 539.507812 426.355469 C 538.414062 426.226562 537.320312 426.171875 536.222656 426.199219 C 535.125 426.226562 534.035156 426.332031 532.953125 426.515625 C 531.871094 426.703125 530.808594 426.960938 529.761719 427.300781 C 528.71875 427.636719 527.703125 428.046875 526.714844 428.53125 C 525.730469 429.011719 524.785156 429.566406 523.878906 430.183594 C 521.773438 431.890625 519.632812 433.554688 517.457031 435.171875 C 515.285156 436.785156 513.074219 438.355469 510.832031 439.875 C 508.589844 441.398438 506.316406 442.871094 504.007812 444.292969 C 501.703125 445.714844 499.367188 447.085938 497 448.410156 C 494.636719 449.734375 492.242188 451.003906 489.824219 452.222656 C 487.402344 453.441406 484.957031 454.609375 482.488281 455.722656 C 480.015625 456.835938 477.523438 457.898438 475.007812 458.902344 C 472.492188 459.910156 469.957031 460.863281 467.398438 461.757812 C 464.839844 462.65625 462.265625 463.5 459.671875 464.285156 C 457.082031 465.070312 454.472656 465.800781 451.847656 466.476562 C 449.222656 467.148438 446.582031 467.765625 443.933594 468.328125 C 441.28125 468.886719 438.617188 469.390625 435.945312 469.835938 C 433.273438 470.28125 430.59375 470.671875 427.902344 471 C 425.210938 471.332031 422.515625 471.605469 419.816406 471.816406 C 417.113281 472.03125 414.410156 472.1875 411.703125 472.285156 C 408.992188 472.382812 406.285156 472.421875 403.574219 472.402344 C 400.863281 472.382812 398.15625 472.308594 395.449219 472.171875 C 392.742188 472.035156 390.042969 471.839844 387.34375 471.589844 C 384.644531 471.335938 381.953125 471.027344 379.269531 470.660156 C 376.585938 470.292969 373.910156 469.867188 371.242188 469.382812 C 368.574219 468.898438 365.921875 468.359375 363.277344 467.761719 C 360.632812 467.164062 358.003906 466.507812 355.390625 465.800781 C 352.777344 465.089844 350.175781 464.320312 347.59375 463.5 C 345.011719 462.675781 342.449219 461.796875 339.90625 460.863281 C 337.363281 459.929688 334.839844 458.945312 332.335938 457.902344 C 329.835938 456.859375 327.359375 455.765625 324.902344 454.617188 C 322.449219 453.46875 320.019531 452.265625 317.617188 451.015625 C 315.214844 449.761719 312.839844 448.457031 310.492188 447.101562 C 308.148438 445.746094 305.832031 444.339844 303.546875 442.886719 C 301.257812 441.429688 299.003906 439.925781 296.785156 438.375 C 294.5625 436.820312 292.375 435.222656 290.222656 433.574219 C 288.070312 431.929688 285.957031 430.238281 283.875 428.5 C 282.308594 427.777344 280.675781 427.253906 278.976562 426.929688 C 277.28125 426.605469 275.570312 426.488281 273.847656 426.578125 C 272.121094 426.667969 270.433594 426.964844 268.78125 427.464844 C 267.128906 427.964844 265.558594 428.65625 264.074219 429.539062 C 259.730469 432.429688 255.480469 435.449219 251.324219 438.597656 C 247.167969 441.75 243.113281 445.023438 239.15625 448.425781 C 235.203125 451.824219 231.355469 455.34375 227.617188 458.980469 C 223.878906 462.621094 220.253906 466.367188 216.746094 470.230469 C 213.242188 474.089844 209.855469 478.054688 206.59375 482.125 C 203.328125 486.195312 200.195312 490.359375 197.1875 494.621094 C 194.183594 498.882812 191.308594 503.234375 188.570312 507.675781 C 185.832031 512.113281 183.234375 516.632812 180.773438 521.234375 C 178.316406 525.832031 176 530.503906 173.828125 535.246094 C 171.65625 539.988281 169.632812 544.792969 167.757812 549.660156 C 165.878906 554.527344 164.15625 559.445312 162.582031 564.417969 C 161.011719 569.394531 159.59375 574.410156 158.328125 579.46875 C 157.066406 584.53125 155.957031 589.625 155.007812 594.753906 C 154.058594 599.882812 153.269531 605.035156 152.636719 610.214844 C 152.003906 615.390625 151.53125 620.582031 151.21875 625.789062 C 150.90625 630.996094 150.753906 636.207031 150.761719 641.421875 C 150.761719 642.136719 150.796875 642.84375 150.867188 643.550781 C 150.9375 644.261719 151.039062 644.960938 151.179688 645.660156 C 151.316406 646.359375 151.488281 647.046875 151.695312 647.726562 C 151.902344 648.40625 152.140625 649.078125 152.414062 649.734375 C 152.683594 650.390625 152.988281 651.035156 153.324219 651.660156 C 153.660156 652.289062 154.023438 652.898438 154.417969 653.488281 C 154.8125 654.078125 155.238281 654.652344 155.6875 655.199219 C 156.140625 655.75 156.617188 656.277344 157.117188 656.777344 C 157.621094 657.28125 158.148438 657.757812 158.699219 658.210938 C 159.246094 658.660156 159.816406 659.085938 160.410156 659.480469 C 161 659.875 161.609375 660.238281 162.238281 660.574219 C 162.863281 660.910156 163.507812 661.214844 164.164062 661.484375 C 164.820312 661.757812 165.488281 661.996094 166.171875 662.203125 C 166.851562 662.410156 167.539062 662.582031 168.238281 662.71875 C 168.9375 662.859375 169.636719 662.960938 170.347656 663.03125 C 171.054688 663.101562 171.761719 663.136719 172.472656 663.136719 L 639.691406 663.136719 C 640.402344 663.136719 641.109375 663.101562 641.816406 663.03125 C 642.527344 662.960938 643.226562 662.859375 643.925781 662.71875 C 644.625 662.582031 645.3125 662.410156 645.992188 662.203125 C 646.675781 661.996094 647.34375 661.757812 648 661.484375 C 648.65625 661.214844 649.300781 660.910156 649.925781 660.574219 C 650.554688 660.238281 651.164062 659.875 651.753906 659.480469 C 652.347656 659.085938 652.917969 658.660156 653.464844 658.210938 C 654.015625 657.757812 654.542969 657.28125 655.046875 656.78125 C 655.546875 656.277344 656.023438 655.75 656.476562 655.199219 C 656.925781 654.652344 657.351562 654.078125 657.746094 653.488281 C 658.140625 652.898438 658.503906 652.289062 658.839844 651.660156 C 659.175781 651.035156 659.480469 650.390625 659.75 649.734375 C 660.023438 649.078125 660.261719 648.40625 660.46875 647.726562 C 660.675781 647.046875 660.847656 646.359375 660.984375 645.660156 C 661.125 644.960938 661.226562 644.261719 661.296875 643.550781 C 661.367188 642.84375 661.402344 642.136719 661.402344 641.421875 C 661.398438 636.21875 661.234375 631.019531 660.914062 625.824219 C 660.59375 620.628906 660.113281 615.449219 659.476562 610.285156 C 658.839844 605.121094 658.046875 599.980469 657.09375 594.863281 C 656.144531 589.746094 655.039062 584.664062 653.777344 579.613281 C 652.515625 574.5625 651.101562 569.558594 649.535156 564.59375 C 647.96875 559.632812 646.253906 554.71875 644.386719 549.863281 C 642.519531 545.003906 640.507812 540.207031 638.351562 535.472656 C 636.191406 530.734375 633.890625 526.070312 631.445312 521.476562 C 629.003906 516.878906 626.421875 512.363281 623.703125 507.925781 C 620.984375 503.488281 618.132812 499.136719 615.148438 494.875 C 612.164062 490.609375 609.050781 486.441406 605.8125 482.367188 C 602.574219 478.292969 599.214844 474.320312 595.734375 470.453125 C 592.253906 466.585938 588.65625 462.824219 584.945312 459.175781 C 581.234375 455.527344 577.417969 451.992188 573.492188 448.578125 C 569.566406 445.160156 565.539062 441.867188 561.410156 438.695312 C 557.285156 435.527344 553.066406 432.484375 548.753906 429.570312 Z M 548.753906 429.570312 " fill-opacity="1" fill-rule="nonzero"/></g></svg>